<svg xmlns="http://www.w3.org/2000/svg" viewBox="0 0 902.71 204.87"><defs><style>.a{fill:#fff;}.b{fill:#f9c600;}</style></defs><title>ambassador_logo-19</title><path class="a" d="M68.28,32V26.88h28.9V32H85.42V79.63H80V32H68.28Z"/><path class="a" d="M101,25.55h5V47.6a21.34,21.34,0,0,1,6.71-6,16.31,16.31,0,0,1,7.92-2,13.84,13.84,0,0,1,7.76,2.22,13.27,13.27,0,0,1,5,6Q135,51.55,135,59.55V79.63h-5V61a47.6,47.6,0,0,0-.54-9,10.21,10.21,0,0,0-3.39-5.83,10,10,0,0,0-6.44-2,12.38,12.38,0,0,0-8.16,3,14.11,14.11,0,0,0-4.75,7.46Q106,57.58,106,65.32V79.63h-5V25.55Z"/><path class="a" d="M175.72,66.68L180,68.91a23.07,23.07,0,0,1-4.81,6.6A19.1,19.1,0,0,1,169,79.32a21.43,21.43,0,0,1-7.72,1.31q-9.55,0-14.93-6.26A21.11,21.11,0,0,1,141,60.23,20.86,20.86,0,0,1,145.53,47,18.63,18.63,0,0,1,161,39.61a19.25,19.25,0,0,1,15.94,7.57,21.13,21.13,0,0,1,4.31,13.34H146.13a15.89,15.89,0,0,0,4.34,11.14A13.86,13.86,0,0,0,160.85,76a16.66,16.66,0,0,0,5.8-1,15.25,15.25,0,0,0,4.79-2.75A23.42,23.42,0,0,0,175.72,66.68Zm0-10.51a16.64,16.64,0,0,0-2.93-6.42,13.86,13.86,0,0,0-5.08-3.87,15.56,15.56,0,0,0-6.64-1.47,14.31,14.31,0,0,0-9.87,3.69,16.69,16.69,0,0,0-4.56,8.07h29.08Z"/><path class="a" d="M226.64,75c-1.62,2.72-6.17,5.29-11.82,5.29-12.85,0-23.06-10-23.06-25.85s11.09-27,22.55-27c10.65,0,13.15,5,14.32,6.17l1.54-5.29H241.1V50H228c-0.22-5.95-4-9.33-8.37-9.33-5.95,0-10.06,6.46-10.06,13.81S213.2,68,219.59,68c4.19,0,5.95-1.69,7.05-3.6V61.27h-4.48V53.41h24.38v7.86H243.6V79.63H228.91Z"/><path class="a" d="M270.92,79.63H249.48V70h3.16V34h-3.08V24.55h17V70h4.33v9.62Z"/><path class="a" d="M274.3,61.12c0.07-12.26,10-19.09,20.12-19.09,11.6,0.15,20.2,7.12,20.42,19.39s-8.89,19.17-20,19.17C284.29,80.58,274.15,74.12,274.3,61.12Zm25.48,0.29c0-5.51-1.91-9.77-5.36-9.84-2.86,0-5.07,4.26-5.07,9.62,0,6,2.35,10,5.43,10S299.78,66.92,299.78,61.42Z"/><path class="a" d="M317.92,79.63V70.08H321V34.17h-3.08V24.55h17.77V45.77c1.62-1.91,6-3.45,9.62-3.45,11.16,0,17.11,9.4,16.89,19.24-0.22,11.31-6.61,18.87-17,18.87-5.58,0-7.64-1.54-9.69-3.3l-1.1,2.5H317.92Zm22.84-27c-2.86,0-5.51,3.6-5.21,9.4,0,5,2.5,8.81,5.29,8.81,3.08,0,5.21-3.6,5.21-9.18C346,57.3,344,52.68,340.76,52.68Z"/><path class="a" d="M366.47,46c2.94-1.76,9.25-5.21,16-5.21,8.81,0,19.9,3.3,19.9,15.13V70.23h4.41v9.4H391.07l-1.76-3.3c-2.72,3.75-7.27,4.7-9.91,4.7-7,0-14.47-3.75-14.47-12.26,0-8.3,7-13.51,15.28-13.51a10.43,10.43,0,0,1,7.27,2.57V55.25c0-3.31-3-4.11-7-4.11-4.33,0-8.15,1.84-10.94,3.38Zm21,23.06V66.26c-0.22-.37-1.25-2.13-4.33-2.13s-4.26,1.62-4.26,3.89c0,2.06,1.69,3.45,3.89,3.45A5.77,5.77,0,0,0,387.47,69.05Z"/><path class="a" d="M432.64,79.63H411.19V70h3.16V34h-3.08V24.55h17V70h4.33v9.62Z"/><path class="a" d="M442.89,79.63l7.55-52.75h0.86l21.44,43.28L494,26.88h0.84l7.59,52.75h-5.17L492,41.9,473.39,79.63H472l-18.87-38-5.18,38h-5.09Z"/><path class="a" d="M545,40.61v39H540V72.92a21.5,21.5,0,0,1-7.08,5.77,19.78,19.78,0,0,1-22.74-4.07A20.14,20.14,0,0,1,504.33,60a19.77,19.77,0,0,1,5.92-14.42,19.29,19.29,0,0,1,14.24-6,18.4,18.4,0,0,1,8.7,2A19.78,19.78,0,0,1,540,47.78V40.61H545ZM524.9,44.45a15.14,15.14,0,0,0-13.38,7.84,15.8,15.8,0,0,0,0,15.76,15.38,15.38,0,0,0,5.68,5.86,14.83,14.83,0,0,0,7.65,2.1,15.68,15.68,0,0,0,7.81-2.08,14.53,14.53,0,0,0,5.68-5.62,16,16,0,0,0,2-8A15.53,15.53,0,0,0,535.87,49,14.77,14.77,0,0,0,524.9,44.45Z"/><path class="a" d="M556.22,26.12h5V40.61h8V45h-8V79.63h-5V45h-6.85V40.61h6.85V26.12Z"/><path class="a" d="M572.33,25.55h5V47.6a21.34,21.34,0,0,1,6.71-6,16.31,16.31,0,0,1,7.92-2,13.84,13.84,0,0,1,7.76,2.22,13.27,13.27,0,0,1,5,6q1.61,3.75,1.61,11.74V79.63h-5V61a47.6,47.6,0,0,0-.54-9,10.21,10.21,0,0,0-3.39-5.83,10,10,0,0,0-6.44-2,12.38,12.38,0,0,0-8.16,3,14.11,14.11,0,0,0-4.75,7.46q-0.72,2.87-.72,10.61V79.63h-5V25.55Z"/><path class="a" d="M622.08,26.88h10.51q9,0,12.19.79a13.54,13.54,0,0,1,7.39,4.57,13.17,13.17,0,0,1,2.87,8.7,13.3,13.3,0,0,1-2.8,8.7,13.77,13.77,0,0,1-7.71,4.61q-3.59.86-13.41,0.86h-3.77V79.63h-5.27V26.88ZM627.35,32V49.94L636.28,50a23.36,23.36,0,0,0,7.92-1,8.12,8.12,0,0,0,3.94-3.19A8.82,8.82,0,0,0,649.59,41a8.7,8.7,0,0,0-1.43-4.85A7.93,7.93,0,0,0,644.37,33a22.76,22.76,0,0,0-7.69-.93h-9.32Z"/><path class="a" d="M658.45,40.61h5.13v5.7a18,18,0,0,1,4.84-5,9.55,9.55,0,0,1,5.31-1.67,9.17,9.17,0,0,1,4.45,1.33l-2.62,4.23a7,7,0,0,0-2.65-.68,7.26,7.26,0,0,0-4.84,2.06,13,13,0,0,0-3.55,6.4q-0.93,3.33-.93,13.48v13.2h-5.13v-39Z"/><path class="a" d="M696.21,39.61a19.32,19.32,0,0,1,14.94,6.53,20.95,20.95,0,0,1-.31,28.38,20.62,20.62,0,0,1-29.31,0,20.9,20.9,0,0,1-.31-28.35A19.31,19.31,0,0,1,696.21,39.61Zm0,4.91a14.48,14.48,0,0,0-10.76,4.63,15.46,15.46,0,0,0-4.5,11.19A15.87,15.87,0,0,0,683,68.22a14.53,14.53,0,0,0,5.54,5.65,15.76,15.76,0,0,0,15.33,0,14.53,14.53,0,0,0,5.54-5.65,15.87,15.87,0,0,0,2.05-7.89,15.43,15.43,0,0,0-4.52-11.19A14.5,14.5,0,0,0,696.2,44.52Z"/><path class="a" d="M720.82,40.61h5.09v44.9q0,4.91-1.78,7.15a5.86,5.86,0,0,1-4.86,2.24,16.3,16.3,0,0,1-5.74-1.22V89.17a8,8,0,0,0,3.62,1,3.31,3.31,0,0,0,3-1.69,10.61,10.61,0,0,0,.61-4.48V40.61Zm2.47-16.07a4,4,0,0,1,2.92,1.22,4,4,0,0,1,1.2,2.94,4,4,0,0,1-1.2,2.91,4.11,4.11,0,0,1-5.85,0,4,4,0,0,1-1.2-2.91,4,4,0,0,1,1.2-2.94A4,4,0,0,1,723.29,24.55Z"/><path class="a" d="M764.79,66.68L769,68.91a23.07,23.07,0,0,1-4.81,6.6,19.1,19.1,0,0,1-6.14,3.82,21.43,21.43,0,0,1-7.72,1.31q-9.55,0-14.93-6.26A21.11,21.11,0,0,1,730,60.23,20.86,20.86,0,0,1,734.6,47a18.63,18.63,0,0,1,15.47-7.39A19.25,19.25,0,0,1,766,47.18a21.13,21.13,0,0,1,4.31,13.34H735.2a15.89,15.89,0,0,0,4.34,11.14A13.86,13.86,0,0,0,749.92,76a16.66,16.66,0,0,0,5.8-1,15.25,15.25,0,0,0,4.79-2.75A23.42,23.42,0,0,0,764.79,66.68Zm0-10.51a16.64,16.64,0,0,0-2.93-6.42,13.86,13.86,0,0,0-5.08-3.87,15.56,15.56,0,0,0-6.64-1.47,14.31,14.31,0,0,0-9.87,3.69,16.69,16.69,0,0,0-4.56,8.07h29.08Z"/><path class="a" d="M813.13,48.72l-4,2.47a16.68,16.68,0,0,0-14.08-6.85,16.29,16.29,0,0,0-11.84,4.58,15,15,0,0,0-4.71,11.14,15.82,15.82,0,0,0,2.17,8,15.19,15.19,0,0,0,5.95,5.84,18,18,0,0,0,22.51-4.77l4,2.62a18.8,18.8,0,0,1-7.51,6.54,24,24,0,0,1-10.74,2.32,21.22,21.22,0,0,1-15.35-5.88,19.13,19.13,0,0,1-6.1-14.31,20.44,20.44,0,0,1,2.85-10.52,20.09,20.09,0,0,1,7.84-7.58,22.86,22.86,0,0,1,11.15-2.72,23.8,23.8,0,0,1,7.48,1.18,20.81,20.81,0,0,1,6.11,3.08A16.8,16.8,0,0,1,813.13,48.72Z"/><path class="a" d="M822.75,26.12h5V40.61h8V45h-8V79.63h-5V45H815.9V40.61h6.85V26.12Z"/><path class="a" d="M98.71,157.39l-3.21,8.83H74.28l26.4-62.52H121.9l25.42,62.52h-22l-3.12-8.83H98.71Zm12-33.09-6.6,18.28h13Z"/><path class="a" d="M207.44,166.21V132l-10.7,28.18H183.18L172.48,132v34.25h-18V103.69h21.85L190,136.34l13.65-32.64h21.85v62.52h-18Z"/><path class="a" d="M266,103.69c15.07,0,24.79,6.24,24.79,15.79,0,6.15-4.1,11.42-10.52,13.38a15.67,15.67,0,0,1,12.4,15.79c0,10.7-9.9,17.57-25.15,17.57H234.38V103.69H266ZM255,127.77h9.9a4.36,4.36,0,0,0,4.73-4.55c0-2.68-1.87-4.37-4.73-4.37H255v8.92Zm0,23.28h9.9c3.83,0,6.33-2,6.33-5,0-2.76-2.5-4.55-6.33-4.55H255v9.54Z"/><path class="a" d="M318,157.39l-3.21,8.83H293.6L320,103.69h21.23l25.42,62.52h-22l-3.12-8.83H318Zm12-33.09-6.6,18.28h13Z"/><path class="a" d="M428.1,110.2l-7.49,15.7c-6.33-3.48-16.05-7.31-21.49-7.31-2.32,0-3.83.71-3.83,2.59,0,7.85,32.38,2.94,32.38,25.6,0,13.91-12.22,20.07-26.31,20.07-10.88,0-23-3.66-31.31-10l7.67-15.52c6.42,5.35,17.48,9.72,23.81,9.72,3,0,5-1,5-3.21,0-8.12-32.38-2.76-32.38-24.7,0-12.49,10.52-20.33,26.76-20.33C410.8,102.8,421.06,105.75,428.1,110.2Z"/><path class="a" d="M490.89,110.2l-7.49,15.7c-6.33-3.48-16.05-7.31-21.49-7.31-2.32,0-3.83.71-3.83,2.59,0,7.85,32.38,2.94,32.38,25.6,0,13.91-12.22,20.07-26.31,20.07-10.88,0-23-3.66-31.31-10l7.67-15.52c6.42,5.35,17.48,9.72,23.81,9.72,3,0,5-1,5-3.21,0-8.12-32.38-2.76-32.38-24.7,0-12.49,10.52-20.33,26.76-20.33C473.59,102.8,483.85,105.75,490.89,110.2Z"/><path class="a" d="M516.67,157.39l-3.21,8.83H492.24l26.4-62.52h21.23l25.42,62.52h-22l-3.12-8.83H516.67Zm12-33.09L522,142.58h13Z"/><path class="a" d="M600.34,103.69c20.6,0,34,12.22,34,31.22s-13.65,31.3-34.78,31.3H572.42V103.69h27.92Zm-7.22,46.47h7.76c7.49,0,12.31-5.89,12.31-15.07s-5.26-15.34-13.29-15.34h-6.78v30.41Z"/><path class="a" d="M709.24,134.91c0,18.55-14.45,32.2-34.34,32.2s-34.34-13.56-34.34-32.2S655,103.07,674.9,103.07,709.24,116.45,709.24,134.91Zm-47.45.09c0,8.56,6.24,14.89,13.38,14.89S688,143.56,688,135s-5.71-14.72-12.84-14.72S661.79,126.44,661.79,135Z"/><path class="a" d="M743.49,150h-7.76v16.23H715V103.69h30.23c16.95,0,26.67,8.12,26.67,22.39,0,9.1-3.48,15.88-9.9,19.8l12.31,20.33H751Zm1.78-15.7c4.46,0,7-2.77,7-7.58,0-4.64-2.59-7.31-7-7.31h-9.54v14.89h9.54Z"/><path class="a" d="M834,110.2l-7.49,15.7c-6.33-3.48-16.05-7.31-21.49-7.31-2.32,0-3.83.71-3.83,2.59,0,7.85,32.38,2.94,32.38,25.6,0,13.91-12.22,20.07-26.31,20.07-10.88,0-23-3.66-31.31-10l7.67-15.52c6.42,5.35,17.48,9.72,23.81,9.72,3,0,5-1,5-3.21,0-8.12-32.38-2.76-32.38-24.7,0-12.49,10.52-20.33,26.76-20.33C816.72,102.8,827,105.75,834,110.2Z"/><path class="b" d="M902.71,117.33c-0.42,2.36-.71,4.75-1.28,7.07-2.11,8.49-6.6,15.64-12.56,21.93-4.52,4.77-9.84,8.48-15.33,12-4.79,3.08-9.43,6.38-14.14,9.58-0.2.14-.43,0.24-0.89,0.5a9.46,9.46,0,0,1,.41-1.05,46.68,46.68,0,0,0,5.61-18.2c0.77-6.85,1.29-13.73,1.88-20.61A69.5,69.5,0,0,1,871.31,107a1.92,1.92,0,0,1,.35-0.58c-0.66,7.6,1.5,14.84,2.74,22.18,1.57,9.25.17,17.89-4.87,25.87-0.16.25-.26,0.52-0.4,0.78l0.22,0.19a8.2,8.2,0,0,0,.76-0.82c1.95-2.75,3.93-5.48,5.81-8.28a91.57,91.57,0,0,1,12.18-14.32,86.81,86.81,0,0,0,7.62-8.61,32.14,32.14,0,0,0,6.55-14.29l0.43,2.13v6.05Z"/><path class="b" d="M893,147a25.46,25.46,0,0,1-2.49,9c-4.36,9.45-11.27,16.67-19.72,22.57-7,4.87-14.78,7.45-23.11,8.85-5.14.86-10.2,2.24-15.29,3.38-0.18,0-.37,0-0.76.1,1.15-1.22,2.2-2.27,3.18-3.39,4.16-4.75,6.72-10.37,8.79-16.25,1.61-4.56,3.14-9.15,4.69-13.73,2.16-6.4,5.79-12,9.76-17.34a56.66,56.66,0,0,1,4.33-5.35l-0.63,1.59c-1.82,4.62-2.48,9.49-3.27,14.35s-1.47,9.51-2.7,14.13c-1.89,7.06-6.35,12.58-11.52,17.57l-1.08,1,0.22,0.32a18.35,18.35,0,0,0,3-2c6-5.89,13.31-9.68,20.72-13.34a95,95,0,0,0,14.61-8.33,35.4,35.4,0,0,0,11.07-12.8C892.83,147.25,892.92,147.13,893,147Z"/><path class="b" d="M842.4,164.64c-3,6.06-6,12.27-9.25,18.34-3.35,6.3-8.71,10.26-15.5,12.32-1.3.39-2.58,0.84-3.86,1.26a2.45,2.45,0,0,0-.37.19l0.08,0.34c2.31-.38,4.61-0.81,6.93-1.11,6.14-.8,12.28-1.67,18.44-2.29,6.79-.68,13.6-1.13,20.12-3.38a32,32,0,0,0,13.21-8.53c-0.27.54-.53,1.08-0.82,1.61s-0.61,1.08-.95,1.6c-4.83,7.35-11.52,12.46-19.42,16.12A42.24,42.24,0,0,1,824.75,204c-7.11-1.35-14.15-3.07-21.22-4.58-2.65-.56-5.32-1-8.19-1.53,0.66-.19,1.2-0.36,1.75-0.49,6.5-1.55,12.81-3.61,18-8,3.58-3.08,6.84-6.53,10.22-9.84A142.43,142.43,0,0,1,841.79,165C842,164.87,842.29,164.71,842.4,164.64Z"/><path class="b" d="M869.8,74.65c1.29,4.9,3.85,9.18,6.45,13.45,1.63,2.68,3.27,5.35,4.82,8.08A31.1,31.1,0,0,1,884,120.65c-0.12.45-.22,0.9-0.31,1.36a2.33,2.33,0,0,0,.21.55,11,11,0,0,0,.78-1.74q1.49-6.27,2.91-12.56c1.26-5.52,3.7-10.58,6-15.72,2.18-5,4.25-10,4.78-15.47,0.3-3.13.06-6.32,0.3-9.57,0.73,2.26,1.62,4.49,2.15,6.8a55.32,55.32,0,0,1-5.1,39.11c-1.69,3.22-4.32,5.94-6.52,8.89L879.71,135c-0.09.12-.19,0.22-0.46,0.54,0.11-1.48.23-2.71,0.3-4,0.26-4.65.41-9.29-1.05-13.82-1.31-4-2.64-8.09-3.84-12.18a134.18,134.18,0,0,1-5.14-25.7c-0.16-1.71,0-3.45,0-5.18Z"/><path class="b" d="M886.21,83.5c0-.51,0-1-0.09-1.53a114.38,114.38,0,0,1-.51-23.09c0.32-4.36.94-8.72,1-13.08,0.07-5.07-.79-10-3.61-14.45a1.68,1.68,0,0,1,.07-0.49c0.62,0.68,1.16,1.21,1.62,1.8,5,6.47,8.69,13.52,10,21.7,1.46,9,.82,17.81-2.85,26.3a72.42,72.42,0,0,0-5,17.37c0,0.3-.14.59-0.27,1.14a7.56,7.56,0,0,1-.31-0.89c-1.12-6.29-4.14-11.71-7.8-16.82-3.39-4.72-6.94-9.33-10.23-14.11-4.06-5.89-6.18-12.59-7.69-19.54A64.37,64.37,0,0,0,865,53.15c3.35,3.27,6.88,6.37,10.33,9.54,3.76,3.45,6.93,7.34,8.49,12.28,0.73,2.31,1.1,4.74,1.65,7.11,0.11,0.5.27,1,.4,1.47Z"/><path class="b" d="M877.87,52.63c-1-2.64-2.07-5.24-2.83-7.93-1.81-6.4-3.44-12.86-5.16-19.29a22.07,22.07,0,0,0-7.79-11.82,0.76,0.76,0,0,1-.33-0.62A25.8,25.8,0,0,1,865,14.14a29.49,29.49,0,0,1,16.51,22.48c0.77,4.59.39,9.2,0.15,13.81A64.56,64.56,0,0,0,882,64.34a3,3,0,0,1,0,.47,0.57,0.57,0,0,1-.24-0.09C878.64,59.11,873.91,55,869,51c-4.12-3.34-8.28-6.65-12.16-10.26-4.48-4.17-6.72-9.67-8.12-15.53-0.18-.75-0.33-1.51-0.48-2.27a2.5,2.5,0,0,1,0-.42,0.79,0.79,0,0,1,.27.16c2.24,4.43,5.83,7.57,9.78,10.38,3.28,2.34,6.66,4.55,9.78,7.09a28.35,28.35,0,0,1,8.53,10.57c0.3,0.69.71,1.33,1.06,2Z"/><path class="b" d="M834.69,0c6.17,2.52,12.7,4.28,18.19,8.29,7.35,5.36,11.41,12.9,14,21.41,0.66,2.2,1.31,4.41,2,6.82-2-1.57-3.89-3-5.71-4.55A108.67,108.67,0,0,1,842.58,8.71c-1.35-2-3.34-3.65-5.07-5.42-1-1-2.08-2-3.12-2.93Z"/><path class="b" d="M0,112l0.36-.93c0.84,6.29,3.93,11.3,7.9,15.82,2.24,2.56,4.58,5.05,7,7.42a88,88,0,0,1,13.85,17,48.26,48.26,0,0,0,3.2,4.15l0.31-.21c-0.25-.49-0.47-1-0.77-1.45a33.12,33.12,0,0,1-4.67-23c0.66-4.82,1.86-9.57,2.59-14.39,0.41-2.75.37-5.56,0.52-8.13,0,0.08.22,0.44,0.37,0.81A66.17,66.17,0,0,1,35,127.36c0.89,7.93,1.65,15.88,2.52,23.81a35.6,35.6,0,0,0,4.14,13.58c0.56,1,1,2.1,1.56,3.28a2,2,0,0,1-.43-0.11c-6.55-4.28-13.17-8.46-19.62-12.89-6.14-4.21-11.75-9.07-16-15.32a39.45,39.45,0,0,1-7-19.42A4.24,4.24,0,0,0,0,119.54Q0,115.79,0,112Z"/><path class="b" d="M0,85.24c0.46-2.6.83-5.21,1.39-7.78,0.51-2.35,1.23-4.65,1.9-7.12,0,2.44-.1,4.67,0,6.89A38.89,38.89,0,0,0,6.77,90.32c2.14,5,4.56,10,6.37,15.14,1.45,4.11,2.14,8.49,3.2,12.73,0.39,1.54.87,3.05,1.32,4.57a8.44,8.44,0,0,0,.43,1l0.28-.07a3.14,3.14,0,0,0-.06-0.76c-2.52-7.57-1.55-14.92,1.34-22.16a72.29,72.29,0,0,1,7.14-13.26,32.62,32.62,0,0,0,4.31-9.69,2.51,2.51,0,0,1,.52-1.06,9.32,9.32,0,0,1,.14,1.63c-0.39,4.4-.7,8.82-1.24,13.2-1.17,9.47-4.3,18.46-7,27.55a38.38,38.38,0,0,0-1,15.5c0,0.34.09,0.67,0.12,1,0,0.19,0,.37,0,0.77a3.44,3.44,0,0,1-.69-0.63c-3-5.28-7.13-9.67-10.88-14.37-1.6-2-3.11-4.1-4.54-6.23-3.19-4.76-4.37-10.26-5.45-15.75C0.64,96.77.38,94.06,0,91.37V85.24Z"/><path class="b" d="M58.3,183c-1.94-2.06-3.93-4.08-5.8-6.2-4.59-5.2-7.05-11.37-8.22-18.14-1-5.81-2-11.61-3.19-17.39a51.11,51.11,0,0,0-1.91-5.82c1.11,1.37,2.07,2.58,3.05,3.78A77.17,77.17,0,0,1,56.34,166.7a77.75,77.75,0,0,0,3.59,9.41c2.57,5.77,4.29,8,10,13.7-0.8-.23-1.33-0.42-1.88-0.53-5.41-1.06-10.8-2.34-16.25-3.09-11-1.51-20.28-6.45-28.25-14-6.42-6.09-11.41-13.1-13.85-21.73-0.23-.8-0.4-1.61-0.59-2.42a0.81,0.81,0,0,1,0-.28c1.17,1.81,2.25,3.71,3.55,5.45a36.76,36.76,0,0,0,12.61,10.37c5.07,2.69,10.25,5.17,15.38,7.75a61.87,61.87,0,0,1,11.79,7.81c1.81,1.5,3.88,2.69,5.83,4Z"/><path class="b" d="M105.14,196.29c-0.7.11-1.41,0.27-2.11,0.34-5.76.54-11.19,2.55-16.77,3.87-6.31,1.49-12.64,2.9-19.15,2.74-15.65-.37-27.69-7.35-36.34-20.31-0.23-.34-0.41-0.72-0.61-1.09a3.9,3.9,0,0,1-.15-0.51,30.06,30.06,0,0,0,8.06,6.13A43.57,43.57,0,0,0,54,191.74c7.19,0.68,14.4,1.14,21.59,1.87,3.07,0.31,6.09,1.11,9.15,1.64,1,0.17,1.94.18,2.91,0.27l0.09-.35a16.87,16.87,0,0,0-2.22-.75C76.86,192.77,71,187.6,67,180c-1.93-3.68-3.78-7.4-5.72-11.08-0.81-1.53-1.76-3-2.79-4.74,0.44,0.26.69,0.39,0.93,0.56,6.47,4.48,12.1,9.92,17.79,15.31,3,2.89,6,5.89,9.32,8.46,4.92,3.83,10.76,5.75,16.78,7.1,0.61,0.14,1.22.31,1.82,0.46Z"/><path class="b" d="M15.62,100.6C15,98,14.55,95.35,13.72,92.82c-1.33-4.05-2.91-8-4.39-12-5.7-15.46-3.65-29.86,6-43.2a18.47,18.47,0,0,1,2.5-2.94,1.87,1.87,0,0,1-.14.41,23.06,23.06,0,0,0-3.22,13.6c0.3,5.17.89,10.32,1.52,15.46A66.23,66.23,0,0,1,16,78.4c-0.2,2.18-.35,4.37-0.51,6.56a4.83,4.83,0,0,0,.11.93l0.33,0c0.18-.86.43-1.72,0.52-2.59a27.54,27.54,0,0,1,7.81-16.16c3.31-3.53,7-6.72,10.37-10.17,1.76-1.79,3.28-3.81,4.85-5.65,0,0.17,0,.57-0.1,1a52,52,0,0,1-9.68,22.13C27.43,77.58,25.2,80.78,23,84,19.58,89.12,16.7,94.49,15.62,100.6Z"/><path class="b" d="M23.31,55.81c0.26-.57.51-1.14,0.78-1.7A35.59,35.59,0,0,1,35.7,40.71c3.46-2.5,6.87-5.08,10.16-7.79a18.58,18.58,0,0,0,5.25-7.17,4,4,0,0,1,.35-0.51,26,26,0,0,1-3.68,12.29A49.19,49.19,0,0,1,34.94,51.6c-4.23,3.27-8.45,6.51-11.76,10.77-1.27,1.63-2.4,3.38-3.7,5.21a9.52,9.52,0,0,1-.05-1.29,89.81,89.81,0,0,0-.25-15.06c-0.41-5.75-.42-11.54,1.52-17.07A27.14,27.14,0,0,1,36.55,17.43a2.64,2.64,0,0,1,1.35-.21c-0.5.44-1,.87-1.51,1.33A22.76,22.76,0,0,0,30,30.21c-1.15,4.62-2,9.31-3.22,13.9-0.89,3.35-2.16,6.6-3.24,9.9-0.18.56-.29,1.15-0.43,1.72Z"/><path class="b" d="M64.25,3.82c-0.73.78-1.43,1.56-2.17,2.31A78.77,78.77,0,0,0,51.75,19,65.89,65.89,0,0,1,36.68,35.24c-1.75,1.37-3.41,2.86-5.17,4.36,1.54-4.84,2.72-9.73,4.63-14.32a30.92,30.92,0,0,1,16-16.34c3.85-1.82,7.84-3.35,11.77-5A3,3,0,0,1,64.25,3.82Z"/></svg>