<svg xmlns="http://www.w3.org/2000/svg" viewBox="0 0 837.41 137.53"><title>gmw_home_logo</title><path d="M48,69.37c-2.22,3.74-8.48,7.27-16.25,7.27C14,76.63,0,62.9,0,41.09c0-22,15.25-37.16,31-37.16,14.64,0,18.07,6.87,19.69,8.48l2.12-7.27h15V34.93H49.78c-0.3-8.18-5.55-12.82-11.51-12.82-8.18,0-13.83,8.88-13.83,19,0,10.3,5,18.58,13.83,18.58,5.75,0,8.18-2.32,9.69-4.95V50.48H41.8V39.68H75.32v10.8h-4V75.73H51.09Z"/><path d="M106.83,75.73H77.34V62.5h4.34V13H77.45V0h23.42V62.5h6V75.73Z"/><path d="M107.43,50.28C107.54,33.42,121.17,24,135.1,24c16,0.2,27.77,9.79,28.07,26.66S151,77,135.6,77C121.17,77,107.23,68.15,107.43,50.28Zm35,0.4c0-7.57-2.62-13.43-7.37-13.53-3.94,0-7,5.86-7,13.23,0,8.28,3.23,13.73,7.47,13.73S142.47,58.26,142.47,50.69Z"/><path d="M165.39,75.73V62.6h4.24V13.23h-4.24V0h24.43V29.18c2.22-2.62,8.28-4.75,13.23-4.75,15.35,0,23.53,12.92,23.22,26.45C226,66.44,217.19,76.84,203,76.84c-7.67,0-10.5-2.12-13.33-4.54l-1.51,3.43H165.39Zm31.4-37.05c-3.94,0-7.57,4.95-7.17,12.92,0,6.87,3.43,12.12,7.27,12.12,4.24,0,7.17-4.95,7.17-12.62C204.06,45,201.24,38.67,196.79,38.67Z"/><path d="M230.12,29.48c4-2.42,12.72-7.17,22-7.17,12.12,0,27.36,4.54,27.36,20.8V62.8h6.06V75.73H263.94l-2.42-4.54c-3.74,5.15-10,6.46-13.63,6.46-9.59,0-19.89-5.15-19.89-16.86,0-11.41,9.59-18.58,21-18.58,6,0,9.49,2.93,10,3.53V42.21c0-4.54-4.14-5.65-9.59-5.65-6,0-11.21,2.52-15,4.64ZM259,61.19V57.35c-0.3-.5-1.72-2.93-6-2.93-4,0-5.86,2.22-5.86,5.35,0,2.83,2.32,4.75,5.35,4.75A7.93,7.93,0,0,0,259,61.19Z"/><path d="M319.07,75.73H289.59V62.5h4.34V13h-4.24V0h23.42V62.5h6V75.73Z"/><path d="M341.25,75.73L351.64,3.2h1.18L382.3,62.71,411.5,3.2h1.16L423.1,75.73H416l-7.17-51.87L383.18,75.73h-1.85L355.38,23.46l-7.12,52.26h-7Z"/><path d="M483.6,22.08V75.73h-6.8V66.51a29.59,29.59,0,0,1-9.74,7.94,27.2,27.2,0,0,1-31.26-5.6,27.69,27.69,0,0,1-8.06-20.09,27.18,27.18,0,0,1,8.14-19.82,26.52,26.52,0,0,1,19.57-8.23,25.32,25.32,0,0,1,12,2.81,27.22,27.22,0,0,1,9.39,8.43V22.08h6.8ZM456,27.36a20.82,20.82,0,0,0-18.39,10.79,21.73,21.73,0,0,0,0,21.67,21.15,21.15,0,0,0,7.81,8.05A20.4,20.4,0,0,0,456,70.75a21.55,21.55,0,0,0,10.74-2.86,20,20,0,0,0,7.8-7.73,22.07,22.07,0,0,0,2.73-11,21.35,21.35,0,0,0-6.13-15.56A20.31,20.31,0,0,0,456,27.36Z"/><path d="M499.09,2.16H506V22.08h10.94v6H506V75.73h-6.9V28h-9.42v-6h9.42V2.16Z"/><path d="M521.23,1.38h6.9V31.7a29.35,29.35,0,0,1,9.22-8.26,22.43,22.43,0,0,1,10.9-2.74,19,19,0,0,1,10.67,3.06A18.23,18.23,0,0,1,565.8,32Q568,37.12,568,48.12V75.73h-6.9V50.14q0-9.27-.74-12.37a14,14,0,0,0-4.66-8,13.79,13.79,0,0,0-8.85-2.69,17,17,0,0,0-11.22,4.14,19.42,19.42,0,0,0-6.53,10.26q-1,3.94-1,14.59V75.73h-6.9V1.38Z"/><path d="M585.6,3.2H593l14.82,52.26L628.65,3.2h1.5L650.7,55.46,665.77,3.2h7.39L652.32,75.73H651L629.45,20.85,607.51,75.73h-1.35Z"/><path d="M719.86,57.93L725.67,61a31.72,31.72,0,0,1-6.61,9.07,26.24,26.24,0,0,1-8.44,5.25A29.44,29.44,0,0,1,700,77.11q-13.13,0-20.53-8.6a29,29,0,0,1-7.4-19.45,28.67,28.67,0,0,1,6.27-18.19q7.94-10.16,21.27-10.16,13.72,0,21.91,10.4,5.82,7.35,5.92,18.34H679.18q0.2,9.35,6,15.32a19,19,0,0,0,14.27,6,22.92,22.92,0,0,0,8-1.42A20.94,20.94,0,0,0,714,65.54,32.15,32.15,0,0,0,719.86,57.93Zm0-14.45a22.92,22.92,0,0,0-4-8.83,19.05,19.05,0,0,0-7-5.32,21.39,21.39,0,0,0-9.13-2,19.67,19.67,0,0,0-13.58,5.08q-4.15,3.7-6.27,11.09h40Z"/><path d="M779.42,57.93L785.24,61a31.72,31.72,0,0,1-6.61,9.07,26.24,26.24,0,0,1-8.44,5.25,29.44,29.44,0,0,1-10.61,1.8q-13.13,0-20.53-8.6a29,29,0,0,1-7.4-19.45,28.67,28.67,0,0,1,6.27-18.19q7.94-10.16,21.27-10.16,13.72,0,21.91,10.4,5.82,7.35,5.92,18.34H738.74q0.2,9.35,6,15.32a19,19,0,0,0,14.27,6,22.92,22.92,0,0,0,8-1.42,20.94,20.94,0,0,0,6.59-3.78A32.15,32.15,0,0,0,779.42,57.93Zm0-14.45a22.92,22.92,0,0,0-4-8.83,19.05,19.05,0,0,0-7-5.32,21.39,21.39,0,0,0-9.13-2,19.67,19.67,0,0,0-13.58,5.08q-4.15,3.7-6.27,11.09h40Z"/><path d="M793.77,1.38h6.9V43.73l24.87-21.65h10.13L806.2,47.67l31.21,28.05h-9.72l-27-24.15V75.73h-6.9V1.38Z"/><path d="M612.92,132.83v-24.1h-5.55v-4.25h10.33v28.35h-4.78Z"/><path d="M648.55,118.66c0,9.19-4.29,14.29-12,14.29s-12.07-5.1-12.07-14.29,4.29-14.3,12.07-14.3S648.55,109.46,648.55,118.66Zm-19.2,0c0,7.17,2.39,10.53,7.17,10.53s7.13-3.36,7.13-10.53-2.39-10.53-7.13-10.53S629.36,111.45,629.36,118.66Z"/><path d="M664.63,137.53V100h3.52v37.5h-3.52Z"/><path d="M688.37,132.83v-24.1h-5.55v-4.25h10.33v28.35h-4.78Z"/><path d="M724,118.66c0,9.19-4.29,14.29-12,14.29s-12.07-5.1-12.07-14.29,4.29-14.3,12.07-14.3S724,109.46,724,118.66Zm-19.2,0c0,7.17,2.39,10.53,7.17,10.53s7.13-3.36,7.13-10.53-2.39-10.53-7.13-10.53S704.81,111.45,704.81,118.66Z"/><path d="M767.54,111.41c0,2.88-2.19,6.07-5.18,9.31L755,128.54h13.85v4.29H748.67v-3.48l10.45-11.22c2.07-2.11,3.44-4.41,3.44-6,0-2.27-1.78-3.64-4.74-3.64-2.47,0-5.35,1.38-7.74,3.56l-1.9-3.69a16.58,16.58,0,0,1,10.33-4C763.86,104.28,767.54,107.08,767.54,111.41Z"/><path d="M796.7,118.66c0,9.19-4.29,14.29-12,14.29s-12.07-5.1-12.07-14.29,4.29-14.3,12.07-14.3S796.7,109.46,796.7,118.66Zm-19.2,0c0,7.17,2.39,10.53,7.17,10.53s7.13-3.36,7.13-10.53-2.39-10.53-7.13-10.53S777.51,111.45,777.51,118.66Z"/><path d="M804.73,132.83v-24.1h-5.55v-4.25H809.5v28.35h-4.78Z"/><path d="M825.14,132.83h-5.06l11-24.05h-11l0,4h-4.21v-8.26h20.61v3.64Z"/></svg>