<svg xmlns="http://www.w3.org/2000/svg" viewBox="0 0 400 400"><defs><style>.a{fill:#fff;}</style></defs><title>donate_icon</title><path class="a" d="M128.59,204Q97.06,205,77,228.89H50.95q-16,0-26.85-7.88T13.2,198q0-68.69,24.13-68.69,1.17,0,8.46,4.09a127.83,127.83,0,0,0,19,8.27,68.24,68.24,0,0,0,23.16,4.18,78.13,78.13,0,0,0,25.88-4.48,96.74,96.74,0,0,0-1,12.84A85.68,85.68,0,0,0,128.59,204ZM123.14,44.23a48,48,0,0,1,14.59,35.22,48,48,0,0,1-14.59,35.22,48,48,0,0,1-35.22,14.59A48,48,0,0,1,52.7,114.67,48,48,0,0,1,38.1,79.45,48,48,0,0,1,52.7,44.23,48,48,0,0,1,87.92,29.64,48,48,0,0,1,123.14,44.23ZM337,327.94q0,23.35-14.21,36.88T285,378.34H115q-23.55,0-37.75-13.52T63,327.94q0-10.31.68-20.14a198,198,0,0,1,2.72-21.21,164.8,164.8,0,0,1,5.16-21.11,99.92,99.92,0,0,1,8.37-19A68.45,68.45,0,0,1,92,230.74a50.79,50.79,0,0,1,16.64-10.41,58.45,58.45,0,0,1,21.7-3.89q1.94,0,8.37,4.18T152.91,230q7.78,5.16,20.82,9.34a84.57,84.57,0,0,0,52.54,0q13-4.18,20.82-9.34t14.21-9.34q6.42-4.18,8.37-4.18a58.46,58.46,0,0,1,21.7,3.89A50.85,50.85,0,0,1,308,230.74a68.58,68.58,0,0,1,12.06,15.76,100.1,100.1,0,0,1,8.37,19,165.29,165.29,0,0,1,5.16,21.11,199,199,0,0,1,2.72,21.21Q337,317.63,337,327.94Zm-84.16-226.6q21.89,21.89,21.89,52.83T252.83,207Q230.94,228.89,200,228.89T147.17,207q-21.89-21.89-21.89-52.83t21.89-52.83Q169.06,79.45,200,79.45T252.83,101.34ZM347.3,44.23A48,48,0,0,1,361.9,79.45a48,48,0,0,1-14.59,35.22,49.8,49.8,0,0,1-70.44,0,48,48,0,0,1-14.59-35.22,48,48,0,0,1,14.59-35.22A49.8,49.8,0,0,1,347.3,44.23ZM386.81,198q0,15.18-10.9,23.06t-26.85,7.88H323Q302.94,205,271.41,204a85.68,85.68,0,0,0,15.76-49.81,97.23,97.23,0,0,0-1-12.84,78.11,78.11,0,0,0,25.88,4.48,68.25,68.25,0,0,0,23.16-4.18,127.83,127.83,0,0,0,19-8.27q7.3-4.09,8.46-4.09Q386.8,129.26,386.81,198Z"/></svg>