<svg xmlns="http://www.w3.org/2000/svg" viewBox="0 0 400 400"><defs><style>.a{fill:#fff;}</style></defs><title>donate_icon</title><path class="a" d="M244,153.09a56.81,56.81,0,0,0-18.63-18.54,48.4,48.4,0,0,0-50.67,0A56.79,56.79,0,0,0,156,153.09a98.86,98.86,0,0,0-10.92,24.6,90.08,90.08,0,0,0,0,52.14A98.81,98.81,0,0,0,156,254.43,56.76,56.76,0,0,0,174.67,273a48.4,48.4,0,0,0,50.67,0A56.79,56.79,0,0,0,244,254.43a98.92,98.92,0,0,0,10.92-24.6,90.08,90.08,0,0,0,0-52.14A99,99,0,0,0,244,153.09ZM201.6,245c-5.87,0-9.95-4.08-9.95-10.07A9.5,9.5,0,0,1,201.6,225c5.87,0,10.07,4.07,10.07,9.95A9.63,9.63,0,0,1,201.6,245Zm8-30H194.17c0-18,14.74-19.33,14.74-31.19,0-5.39-3.24-7.69-8.63-7.69-6,0-9.35,3.53-9.47,11L174.88,187c0.24-17.14,10.43-27.19,27.32-27.19,15.94,0,25.77,7.23,25.77,20.65C228,198.66,209.63,201,209.63,215Z"/><path class="a" d="M372.63,89.62A11.18,11.18,0,0,0,364.49,86h-329a11.17,11.17,0,0,0-8.14,3.62A11.48,11.48,0,0,0,24,98V309.5a10.89,10.89,0,0,0,3.37,8.14A10.9,10.9,0,0,0,35.51,321h329A11.49,11.49,0,0,0,376,309.5V98A11.49,11.49,0,0,0,372.63,89.62ZM353,250.76A47.45,47.45,0,0,0,305.74,298H94.26a45.63,45.63,0,0,0-13.9-33.35A45.64,45.64,0,0,0,47,250.76v-94c13,0,24.18-4.47,33.36-13.65S94.26,123,94.26,110H305.74c0,13,4.72,23.93,13.9,33.11S340,156.77,353,156.77v94Z"/></svg>