<svg xmlns="http://www.w3.org/2000/svg" viewBox="0 0 400 400"><defs><style>.a{fill:#fff;}</style></defs><title>donate_icon</title><path class="a" d="M363.73,321.22q0,27.91-17,44.07t-45.12,16.16H98.37q-28.14,0-45.12-16.16t-17-44.07q0-12.33.81-24.07a236.55,236.55,0,0,1,3.26-25.35,197,197,0,0,1,6.16-25.23,119.48,119.48,0,0,1,10-22.68A81.79,81.79,0,0,1,70.92,205,60.7,60.7,0,0,1,90.81,192.6,69.85,69.85,0,0,1,116.74,188q2.09,0,9.77,5t17.33,11.16q9.65,6.17,25.12,11.16a98.88,98.88,0,0,0,62.1,0q15.46-5,25.12-11.16T273.49,193q7.67-5,9.77-5a69.88,69.88,0,0,1,25.93,4.65A60.76,60.76,0,0,1,329.08,205a81.9,81.9,0,0,1,14.42,18.84,119.73,119.73,0,0,1,10,22.68,198,198,0,0,1,6.16,25.23,237.55,237.55,0,0,1,3.26,25.35Q363.73,308.89,363.73,321.22ZM263.14,50.39q26.17,26.16,26.16,63.14t-26.16,63.14Q237,202.84,200,202.84t-63.14-26.16q-26.16-26.16-26.16-63.14t26.16-63.14Q163,24.22,200,24.22T263.14,50.39Z"/></svg>