<svg xmlns="http://www.w3.org/2000/svg" viewBox="0 0 400 400"><defs><style>.a{fill:#fff;}</style></defs><title>donate_icon</title><path class="a" d="M62.17,104.29a26.52,26.52,0,0,0-20.38,9.84H31.48A17.63,17.63,0,0,1,20.87,111q-4.31-3.11-4.31-9.11,0-27.15,9.54-27.15a14.68,14.68,0,0,1,3.35,1.62,50.52,50.52,0,0,0,7.5,3.27A27,27,0,0,0,46.1,81.3a30.88,30.88,0,0,0,10.23-1.77,38.23,38.23,0,0,0-.38,5.08A33.86,33.86,0,0,0,62.17,104.29ZM60,41.16a19,19,0,0,1,5.77,13.92A19.69,19.69,0,0,1,46.1,74.76,19.69,19.69,0,0,1,26.41,55.08,19.69,19.69,0,0,1,46.1,35.39,19,19,0,0,1,60,41.16Zm84.52,112.13q0,9.23-5.61,14.57T124,173.2H56.79q-9.31,0-14.92-5.34t-5.61-14.57q0-4.08.27-8a78.24,78.24,0,0,1,1.08-8.38,65.13,65.13,0,0,1,2-8.34,39.49,39.49,0,0,1,3.31-7.5,27.05,27.05,0,0,1,4.77-6.23,20.07,20.07,0,0,1,6.58-4.11,23.1,23.1,0,0,1,8.58-1.54q0.77,0,3.31,1.65l5.61,3.69A33.64,33.64,0,0,0,80,118.25a35.7,35.7,0,0,0,29-3.69l5.61-3.69q2.54-1.65,3.31-1.65a23.1,23.1,0,0,1,8.57,1.54,20.1,20.1,0,0,1,6.58,4.11,27.1,27.1,0,0,1,4.77,6.23,39.56,39.56,0,0,1,3.31,7.5,65.32,65.32,0,0,1,2,8.34,78.63,78.63,0,0,1,1.08,8.38Q144.53,149.21,144.53,153.28ZM111.27,63.73a28.45,28.45,0,0,1,8.65,20.88,29.54,29.54,0,0,1-29.53,29.53A29.54,29.54,0,0,1,60.86,84.61,29.54,29.54,0,0,1,90.39,55.08,28.45,28.45,0,0,1,111.27,63.73Zm37.34-22.57a19,19,0,0,1,5.77,13.92A19.69,19.69,0,0,1,120.77,69,19,19,0,0,1,115,55.08,19.69,19.69,0,0,1,148.61,41.16Zm15.61,60.75q0,6-4.31,9.11a17.63,17.63,0,0,1-10.61,3.11H139a26.52,26.52,0,0,0-20.38-9.84,33.86,33.86,0,0,0,6.23-19.69,38.43,38.43,0,0,0-.38-5.08,30.87,30.87,0,0,0,10.23,1.77,27,27,0,0,0,9.15-1.65,50.52,50.52,0,0,0,7.5-3.27,14.67,14.67,0,0,1,3.35-1.62Q164.22,74.76,164.22,101.91Z"/><path class="a" d="M281.38,104.29A26.52,26.52,0,0,0,261,114.14H250.7A17.63,17.63,0,0,1,240.08,111q-4.31-3.11-4.31-9.11,0-27.15,9.54-27.15a14.68,14.68,0,0,1,3.35,1.62,50.52,50.52,0,0,0,7.5,3.27,27,27,0,0,0,9.15,1.65,30.88,30.88,0,0,0,10.23-1.77,38.23,38.23,0,0,0-.38,5.08A33.86,33.86,0,0,0,281.38,104.29Zm-2.15-63.14A19,19,0,0,1,285,55.08a19.69,19.69,0,0,1-39.38,0A19.69,19.69,0,0,1,279.23,41.16Zm84.52,112.13q0,9.23-5.61,14.57t-14.92,5.34H276q-9.31,0-14.92-5.34t-5.61-14.57q0-4.08.27-8a78.24,78.24,0,0,1,1.08-8.38,65.13,65.13,0,0,1,2-8.34,39.49,39.49,0,0,1,3.31-7.5,27.05,27.05,0,0,1,4.77-6.23,20.07,20.07,0,0,1,6.58-4.11,23.1,23.1,0,0,1,8.58-1.54q0.77,0,3.31,1.65l5.61,3.69a35.7,35.7,0,0,0,37.22,0l5.61-3.69q2.54-1.65,3.31-1.65a23.1,23.1,0,0,1,8.57,1.54,20.1,20.1,0,0,1,6.58,4.11,27.1,27.1,0,0,1,4.77,6.23,39.56,39.56,0,0,1,3.31,7.5,65.32,65.32,0,0,1,2,8.34,78.63,78.63,0,0,1,1.08,8.38Q363.75,149.21,363.75,153.28ZM330.49,63.73a28.45,28.45,0,0,1,8.65,20.88,29.53,29.53,0,0,1-59.06,0A29.53,29.53,0,0,1,330.49,63.73Zm37.34-22.57a19,19,0,0,1,5.77,13.92,19.69,19.69,0,0,1-39.38,0A19.69,19.69,0,0,1,367.82,41.16Zm15.61,60.75q0,6-4.31,9.11a17.63,17.63,0,0,1-10.61,3.11H358.21a26.52,26.52,0,0,0-20.38-9.84,33.86,33.86,0,0,0,6.23-19.69,38.43,38.43,0,0,0-.38-5.08A30.87,30.87,0,0,0,353.9,81.3a27,27,0,0,0,9.15-1.65,50.52,50.52,0,0,0,7.5-3.27,14.67,14.67,0,0,1,3.35-1.62Q383.43,74.76,383.44,101.91Z"/><path class="a" d="M160.3,278.77a37.3,37.3,0,0,0-28.67,13.85h-14.5q-8.87,0-14.93-4.38t-6.06-12.82q0-38.18,13.41-38.19,0.65,0,4.71,2.27a71.06,71.06,0,0,0,10.55,4.6,37.94,37.94,0,0,0,12.87,2.33,43.43,43.43,0,0,0,14.39-2.49,53.78,53.78,0,0,0-.54,7.14A47.63,47.63,0,0,0,160.3,278.77Zm-3-88.81a27.69,27.69,0,0,1-19.58,47.27A27.69,27.69,0,1,1,157.27,190ZM276.15,347.67q0,13-7.9,20.5t-21,7.52H152.73q-13.09,0-21-7.52t-7.9-20.5q0-5.73.38-11.2a110,110,0,0,1,1.51-11.79,91.61,91.61,0,0,1,2.87-11.74,55.54,55.54,0,0,1,4.65-10.55,38,38,0,0,1,6.71-8.76,28.24,28.24,0,0,1,9.25-5.79,32.49,32.49,0,0,1,12.06-2.16q1.08,0,4.65,2.33t7.9,5.19a48.51,48.51,0,0,0,40.78,5.19,47.38,47.38,0,0,0,11.57-5.19q4.33-2.86,7.9-5.19t4.65-2.33a32.5,32.5,0,0,1,12.06,2.16,28.27,28.27,0,0,1,9.25,5.79,38.13,38.13,0,0,1,6.71,8.76,55.65,55.65,0,0,1,4.65,10.55,91.88,91.88,0,0,1,2.87,11.74,110.6,110.6,0,0,1,1.51,11.79Q276.15,341.94,276.15,347.67Zm-46.79-126A41.54,41.54,0,0,1,200,292.61a41.53,41.53,0,0,1-29.37-70.91A41.52,41.52,0,0,1,229.37,221.7ZM281.89,190a27.68,27.68,0,1,1-19.58-8.11A26.68,26.68,0,0,1,281.89,190Zm22,85.46q0,8.44-6.06,12.82t-14.93,4.38h-14.5a37.3,37.3,0,0,0-28.67-13.85,47.63,47.63,0,0,0,8.76-27.69,54,54,0,0,0-.54-7.14,43.42,43.42,0,0,0,14.39,2.49,37.94,37.94,0,0,0,12.87-2.33,71.06,71.06,0,0,0,10.55-4.6q4.06-2.27,4.71-2.27Q303.84,237.23,303.85,275.41Z"/></svg>