<svg xmlns="http://www.w3.org/2000/svg" viewBox="0 0 1200 630"><defs><style>.a{opacity:0.5;}.b{fill:#ccc;}.c{fill:#b3b3b3;}.d{fill:#fff;}.e{fill:#e6e6e6;}</style></defs><title>gmp_ambassador_logo</title><g class="a"><path class="b" d="M253.24,351.86l0.94-2.39c2.16,16.24,10.13,29.15,20.37,40.82,5.79,6.6,11.81,13,18.11,19.14a226.88,226.88,0,0,1,35.72,44c2.35,3.82,5.48,7.16,8.25,10.72l0.79-.55c-0.65-1.25-1.22-2.56-2-3.75-11.55-18.21-14.94-38.19-12-59.22,1.71-12.44,4.79-24.7,6.67-37.13,1.07-7.08,1-14.34,1.34-21,0.1,0.21.57,1.14,1,2.09,6.23,15,9.25,30.79,11.05,46.82,2.3,20.46,4.25,41,6.5,61.42,1.36,12.32,4.6,24.11,10.67,35,1.45,2.62,2.58,5.41,4,8.45a5.11,5.11,0,0,1-1.11-.29c-16.9-11.05-34-21.84-50.63-33.26-15.85-10.87-30.32-23.41-41.18-39.52-10.21-15.15-16.63-31.72-18-50.09a10.93,10.93,0,0,0-.5-1.93Q253.24,361.53,253.24,351.86Z"/><path class="b" d="M960.45,364.75c-1.06,5.94-1.78,12-3.23,17.8-5.31,21.37-16.62,39.38-31.64,55.23-11.37,12-24.78,21.36-38.61,30.25-12.06,7.75-23.75,16.07-35.61,24.12-0.51.35-1.09,0.61-2.23,1.25a23.81,23.81,0,0,1,1-2.65c8.13-14.22,12.3-29.73,14.12-45.82,1.95-17.25,3.24-34.58,4.74-51.89,1.61-18.66,5-36.9,12.37-54.24a4.83,4.83,0,0,1,.89-1.46c-1.66,19.14,3.77,37.37,6.89,55.85,3.94,23.3.42,45-12.26,65.13-0.39.62-.67,1.31-1,2l0.55,0.48a20.65,20.65,0,0,0,1.91-2.06c4.91-6.93,9.89-13.81,14.63-20.84a230.57,230.57,0,0,1,30.67-36.06,218.59,218.59,0,0,0,19.18-21.68,80.94,80.94,0,0,0,16.5-36l1.07,5.35v15.23Z"/><path class="b" d="M253.24,282.72c1.18-6.7,2.14-13.44,3.6-20.08,1.32-6.05,3.17-12,4.89-18.36,0,6.3-.25,12.06.05,17.79,0.63,11.85,4.34,22.94,8.93,33.77,5.51,13,11.77,25.75,16.45,39.05,3.73,10.61,5.52,21.89,8.27,32.85,1,4,2.24,7.87,3.41,11.79a21.77,21.77,0,0,0,1.11,2.52l0.72-.18a8.11,8.11,0,0,0-.15-2c-6.49-19.52-4-38.48,3.47-57.16a186.49,186.49,0,0,1,18.42-34.21,84.14,84.14,0,0,0,11.12-25,6.46,6.46,0,0,1,1.34-2.74,24.06,24.06,0,0,1,.35,4.22c-1,11.36-1.8,22.74-3.2,34.06-3,24.43-11.09,47.63-18,71.08-3.9,13.26-4,26.52-2.48,40,0.1,0.87.23,1.74,0.32,2.62,0,0.48,0,1,0,2a8.89,8.89,0,0,1-1.79-1.62c-7.7-13.62-18.39-25-28.06-37.08-4.13-5.18-8-10.57-11.72-16.08-8.22-12.29-11.27-26.46-14.07-40.63-1.35-6.86-2-13.86-3-20.8V282.72Z"/><path class="b" d="M936,439.46c-0.53,8-3,15.47-6.27,22.66-11,23.8-28.37,42-49.65,56.83-17.57,12.26-37.21,18.76-58.19,22.29-12.95,2.17-25.68,5.64-38.51,8.52-0.46.1-.94,0.12-1.92,0.25,2.89-3.07,5.53-5.71,8-8.52,10.47-12,16.93-26.11,22.14-40.91,4-11.49,7.91-23,11.8-34.58,5.43-16.12,14.58-30.12,24.58-43.66a142.66,142.66,0,0,1,10.91-13.48l-1.59,4c-4.59,11.62-6.23,23.9-8.24,36.13-2,11.92-3.69,23.94-6.8,35.57-4.75,17.77-16,31.69-29,44.24-0.9.87-1.82,1.72-2.73,2.58l0.55,0.81c2.52-1.64,5.41-2.92,7.51-5,15.07-14.83,33.51-24.36,52.17-33.58,12.68-6.27,25.37-12.54,36.8-21,11.69-8.63,21.39-19.06,27.89-32.23C935.59,440.08,935.81,439.78,936,439.46Z"/><path class="b" d="M403.64,535c-5-5.32-10.14-10.52-15-16-11.85-13.41-18.2-29.33-21.21-46.8-2.58-15-5.23-30-8.22-44.86-1-4.91-3.11-9.6-4.93-15,2.85,3.54,5.33,6.67,7.87,9.76,17.23,21,28.7,44.88,36.41,70.79a200.59,200.59,0,0,0,9.27,24.28c6.63,14.88,11.06,20.62,25.78,35.34-2.07-.59-3.44-1.1-4.86-1.37-14-2.72-27.85-6-41.92-8C358.4,539.24,334.55,526.49,314,507c-16.56-15.7-29.43-33.79-35.73-56.05-0.58-2.06-1-4.16-1.52-6.25a2.08,2.08,0,0,1,.06-0.72c3,4.66,5.8,9.57,9.15,14.07,8.61,11.58,19.92,20.06,32.52,26.75,13.08,6.94,26.45,13.34,39.68,20a159.6,159.6,0,0,1,30.42,20.15c4.66,3.88,10,6.93,15,10.36Z"/><path class="b" d="M808.6,483.88c-7.67,15.27-15.16,30.89-23.29,46.17-8.44,15.87-21.92,25.83-39,31-3.26,1-6.49,2.1-9.72,3.18a6.18,6.18,0,0,0-.93.49l0.21,0.85c5.82-.95,11.61-2,17.46-2.81,15.47-2,30.92-4.2,46.44-5.76,17.09-1.72,34.26-2.85,50.66-8.5A80.55,80.55,0,0,0,883.63,527c-0.69,1.35-1.34,2.72-2.07,4.05s-1.53,2.72-2.39,4c-12.17,18.5-29,31.38-48.89,40.59-21.22,9.83-43.44,11.57-66.12,7.25-17.9-3.41-35.62-7.73-53.44-11.54-6.67-1.42-13.41-2.51-20.62-3.85,1.67-.47,3-0.9,4.4-1.23,16.36-3.89,32.26-9.08,45.23-20.24,9-7.76,17.22-16.45,25.74-24.77,13.21-12.9,26.52-25.68,41.6-36.43C807.68,484.44,808.33,484,808.6,483.88Z"/><path class="b" d="M524.47,569.19c-1.82.3-3.62,0.7-5.45,0.87-14.87,1.39-28.85,6.58-43.26,10-16.27,3.84-32.61,7.47-49.4,7.08-40.37-1-71.42-19-93.74-52.4-0.59-.89-1.07-1.86-1.58-2.8a10.07,10.07,0,0,1-.39-1.32,77.56,77.56,0,0,0,20.8,15.81c12.88,6.57,26.73,9.71,41,11.07,18.55,1.77,37.16,2.94,55.7,4.83,7.93,0.81,15.72,2.85,23.6,4.22,2.47,0.43,5,.47,7.5.69l0.23-.91a43.53,43.53,0,0,0-5.73-1.93c-22.22-4.26-37.33-17.59-47.56-37.15-5-9.5-9.76-19.1-14.76-28.58-2.09-4-4.54-7.73-7.2-12.22,1.12,0.67,1.78,1,2.39,1.43,16.69,11.55,31.22,25.6,45.9,39.49,7.86,7.44,15.53,15.18,24,21.82,12.68,9.89,27.75,14.82,43.29,18.33,1.58,0.36,3.14.79,4.71,1.19Z"/><path class="b" d="M877.6,257.28c3.25,12.34,9.7,23.12,16.24,33.87,4.11,6.75,8.23,13.48,12.13,20.35C917,331,919.3,351.55,913.39,373.1c-0.31,1.13-.55,2.27-0.78,3.42a5.86,5.86,0,0,0,.54,1.38,27.74,27.74,0,0,0,2-4.38q3.74-15.79,7.32-31.62c3.16-13.89,9.31-26.64,15-39.58,5.49-12.52,10.71-25.22,12-38.95,0.76-7.89.14-15.92,0.75-24.1,1.83,5.7,4.09,11.3,5.42,17.11,7.87,34.37,3.47,67.35-12.84,98.47-4.25,8.1-10.89,14.95-16.43,22.37l-23.8,31.89c-0.22.3-.48,0.56-1.16,1.35,0.29-3.72.58-6.83,0.76-9.95,0.66-11.71,1-23.4-2.65-34.8-3.31-10.19-6.64-20.38-9.67-30.66-6.25-21.17-10.93-42.69-13-64.7-0.4-4.31-.06-8.69-0.06-13Z"/><path class="b" d="M918.91,279.56c-0.07-1.28-.07-2.58-0.23-3.85a288,288,0,0,1-1.29-58.14c0.82-11,2.36-21.95,2.5-32.93,0.17-12.78-2-25.28-9.08-36.4A4.23,4.23,0,0,1,911,147c1.55,1.72,2.92,3.05,4.07,4.54,12.58,16.28,21.87,34.05,25.2,54.64,3.67,22.76,2.07,44.85-7.17,66.22a182.35,182.35,0,0,0-12.5,43.74c-0.12.75-.35,1.49-0.67,2.86a19,19,0,0,1-.77-2.25c-2.82-15.85-10.41-29.5-19.65-42.35-8.54-11.88-17.47-23.49-25.77-35.53-10.22-14.84-15.57-31.7-19.37-49.19,3.78,4.6,7.09,9.45,11.21,13.47,8.44,8.24,17.32,16,26,24,9.48,8.69,17.46,18.49,21.38,30.93,1.84,5.82,2.78,11.93,4.15,17.9,0.29,1.25.67,2.47,1,3.71Z"/><path class="b" d="M293.53,322.34c-1.6-6.68-2.76-13.53-4.9-20.06-3.43-10.46-7.51-20.7-11.32-31-14.71-39.89-9.41-77,15.43-111.44a47.64,47.64,0,0,1,6.45-7.58,4.83,4.83,0,0,1-.35,1.07c-6.58,10.79-9,22.72-8.3,35.08,0.76,13.33,2.29,26.63,3.92,39.89a170.87,170.87,0,0,1,.13,36.81c-0.52,5.64-.91,11.29-1.3,16.93a12.45,12.45,0,0,0,.29,2.39l0.86,0.06c0.46-2.23,1.1-4.44,1.34-6.69,1.71-16.33,9.19-30,20.15-41.69,8.53-9.11,18-17.33,26.75-26.23,4.54-4.61,8.47-9.83,12.5-14.57,0,0.43-.09,1.46-0.26,2.48-3.63,21.08-12.36,39.91-25,57.1-5.94,8.1-11.69,16.36-17.3,24.69C303.76,292.73,296.32,306.58,293.53,322.34Z"/><path class="b" d="M897.9,201.84c-2.4-6.65-5.2-13.19-7.12-20-4.55-16.13-8.65-32.38-13-48.56a55.57,55.57,0,0,0-19.61-29.76,1.9,1.9,0,0,1-.82-1.55c2.74,1,5.64,1.61,8.2,2.92,23.32,11.89,37.24,30.77,41.58,56.6,1.94,11.55,1,23.17.39,34.76s-1.14,23.4.77,35a7.59,7.59,0,0,1,0,1.18,1.43,1.43,0,0,1-.6-0.23c-7.87-14.13-19.78-24.46-32.11-34.46C865.24,189.4,854.77,181.06,845,172c-11.28-10.5-16.92-24.34-20.44-39.1-0.45-1.89-.83-3.81-1.22-5.72a6.29,6.29,0,0,1,0-1.06,2,2,0,0,1,.68.41c5.63,11.15,14.68,19.05,24.63,26.14,8.26,5.88,16.77,11.47,24.63,17.85,9,7.28,16.75,15.78,21.47,26.62,0.76,1.73,1.78,3.35,2.68,5Z"/><path class="b" d="M313.38,206.81c0.67-1.46,1.32-2.93,2-4.38,6.88-14.21,17.19-25.39,29.93-34.59,8.93-6.44,17.72-13.1,26.22-20.1a47.92,47.92,0,0,0,13.55-18.49,10.36,10.36,0,0,1,.91-1.31,67,67,0,0,1-9.49,31.7c-8.41,14.51-20,26.16-33.15,36.31-10.9,8.44-21.81,16.81-30.34,27.77-3.28,4.21-6.2,8.71-9.54,13.43a24.57,24.57,0,0,1-.13-3.32c1.26-13,.26-25.89-0.65-38.85-1-14.82-1.08-29.77,3.91-44,7.15-20.4,20.86-34.88,40.92-43.18a6.82,6.82,0,0,1,3.48-.53c-1.3,1.14-2.63,2.25-3.89,3.42-8.85,8.19-13.66,18.66-16.49,30.09-3,11.91-5.18,24-8.32,35.87-2.29,8.64-5.57,17-8.37,25.54-0.48,1.45-.75,3-1.11,4.44Z"/><path class="b" d="M789.18,69.32c15.54,6.35,32,10.78,45.8,20.88,18.5,13.51,28.73,32.48,35.15,53.9,1.66,5.55,3.31,11.11,5.11,17.17-5-4-9.79-7.57-14.37-11.45a273.61,273.61,0,0,1-51.81-58.57c-3.39-5.12-8.4-9.19-12.76-13.65-2.51-2.56-5.23-4.93-7.86-7.38Z"/><path class="b" d="M419,72.69c-1.88,2-3.68,4-5.59,6A203.22,203.22,0,0,0,386.75,112c-10.5,16.31-23.72,29.89-38.89,41.77-4.52,3.54-8.79,7.39-13.35,11.24,4-12.48,7-25.09,11.94-36.94,8-19.32,22.31-33.23,41.18-42.15C397.57,81.19,407.87,77.25,418,73A7.81,7.81,0,0,1,419,72.69Z"/></g><g class="a"><path class="c" d="M592.31,51.13h29.08a31.44,31.44,0,0,0,3.73.7C661,54.3,695,63.58,726.45,80.86c74,40.62,118.79,102.5,133.66,185.74,1.52,8.5,2.24,17.14,3.32,25.71V323.1a23,23,0,0,0-.71,3.29c-2.1,29.83-8.86,58.61-21.65,85.61C802,494.48,737.58,544.46,647.58,560.91c-8.65,1.58-17.45,2.27-26.19,3.38H592.31a31.24,31.24,0,0,0-3.73-.71c-43-3-83-15.87-119.07-39.42-64-41.72-102.77-100.34-115.89-175.71-1.46-8.39-2.25-16.89-3.35-25.34V291.46c0.27-1.52.6-3,.79-4.57,1-7.9,1.59-15.88,3-23.71C364,208.33,389.23,161.59,429.36,123c38.44-37,84-60,136.75-68.55C574.8,53.07,583.57,52.23,592.31,51.13Zm-231.56,256C360.68,442.88,471,553.54,606.53,553.81S852.9,443.19,852.95,307.36C853,172.09,742.38,61.67,606.83,61.67,471.88,61.68,360.81,172.49,360.75,307.17Z"/></g><g class="a"><path class="d" d="M360.75,307.17c0.07-134.68,111.14-245.49,246.08-245.5,135.56,0,246.17,110.42,246.12,245.69C852.9,443.19,742,554.08,606.53,553.81S360.68,442.88,360.75,307.17Zm288-221.24c-3.19,7.13,2.51,9.23,6.08,13.18-3.12.74-5.39,1.41-7.72,1.79-5.71,1-12,.55-17.06,2.89-11.73,5.43-22.82,12.24-34.27,18.29-2.56,1.35-3,2.84-2.32,5.44,1.15,4.38,2,8.83,3,13.38-0.86.37-1.48,0.67-2.12,0.92-4.54,1.77-5.18,3.62-2.57,7.53,3,4.5,6.26,8.86,8.94,13.54,1.53,2.66,2.14,5.85,3.17,8.82-4.22,1.19-8.71,1.13-10.36,3.27s-0.45,6.54-.85,9.9c-0.13,1.06-1.36,2.74-2.22,2.83-3.58.37-4.16,2.3-3.44,5.26,1.06,4.33-.79,6.91-4.44,9.33-11.52,7.62-22.8,15.62-34.13,23.52-4.31,3-10.21,5.31-12.27,9.48-2,4,.37,10,0.33,15.08,0,3.61,1.39,6.16,3.77,8.61,9.44,9.71,18.71,19.57,28.23,29.2a8.58,8.58,0,0,0,5.52,2.26c14.15,0.07,28.44,1.27,42.73-4.35,0,2.57-.39,4.71.07,6.65,2.33,10,4.88,20,7.36,30,0.17,0.69.53,1.33,0.72,2,0.86,3.11,2.19,6.19,2.44,9.35,0.67,8.37.74,16.79,1.34,25.17a21,21,0,0,0,2.14,7.6c3.91,7.9,8.47,15.51,12.06,23.55,2.1,4.69,3.12,9.94,4.06,15,0.52,2.8,1.83,3.69,4.25,3.57,5-.25,10-0.21,14.9-1,9.31-1.52,15.93-6.33,19.62-15.59a151.74,151.74,0,0,1,12-23.55c2.5-4,6.54-7.37,10.49-10.18,4.37-3.11,9.5-5.13,14.17-7.85a14.76,14.76,0,0,0,7.6-10.32,37.25,37.25,0,0,1,10.05-19q14.12-14.9,28.22-29.81c0.67-.71,1.48-1.3,2.31-2l-1.15,21.56c3.09-1.07,5.68-1.82,8.12-2.9,0.82-.36,1.89-1.66,1.78-2.38-1.11-7.49,1.52-15.6-4-22.42-2.16-2.68-4.07-4.46-7.8-3.66-5.56,1.19-11.22,1.92-16.8,3-3.9.78-6.43-.27-8.08-4.12q-5-11.57-10.49-22.89a131.44,131.44,0,0,0-7-12.1c-3.21-5.1-6.62-10.08-9.94-15.11l1-.68c3.61,4.65,7.35,9.21,10.82,14,8.4,11.48,17.33,22.63,22.83,36,1.43,3.48,4.35,4.11,7.43,2.85a37,37,0,0,0,7.69-4.51c3-2.24,5.84-4.82,8.91-7.39l2.81,5.67,5.62-1.57V266.2h7.07c-0.9,5.32-1.29,10.26-2.63,14.93-2.39,8.34-1.66,11.49,4.9,15.86,9.92-12.66,14.31-15.11,24.57-19.23a43.74,43.74,0,0,1,2.58,4.8c2.5,6.37,2.67,13.17-2.36,17.84a21.2,21.2,0,0,0-6.89,13.06c-0.52,3.32-.94,6.65-1.42,10-10.07-2.15-5.62-11.06-7.67-17-2.73.15-5.29,0.17-7.82,0.49a3.24,3.24,0,0,0-2.19,1.51c-2.95,6.09-5.81,12.31.78,17.92a16.07,16.07,0,0,0,5.81,3.42,46.36,46.36,0,0,0,9.71,1.33,6.34,6.34,0,0,0,4.11-1.22c11.77-10,11.74-10,12.38-25.44a29,29,0,0,0,.11-3.42c-0.42-5.38,2.58-9,7.12-13.56l6.81,32.15a30.55,30.55,0,0,0,2.88-11.56,208.2,208.2,0,0,0-5.83-53.81c-21-83.61-73.19-139-153.28-169a9.2,9.2,0,0,0-6.32.59c-5.41,2.47-10.61,5.4-14.9,7.63ZM442.89,457.1c-0.79-1.52-1.49-2.9-2.23-4.25-5-9.12-10-18.2-14.88-27.39-0.85-1.62-1.54-4.08-.93-5.6,5.67-14.05,12.62-27.4,23-38.72,3.39-3.71,7.29-4.32,12-2.84,7.54,2.38,10.6.94,13.47-6.46,2.26-5.83,4.22-11.79,6-17.79,2.19-7.36,5.17-13.89,13.36-16.26a7.79,7.79,0,0,0,1.86-1c8-5,8.68-11.27,1.3-17a177.53,177.53,0,0,0-20.64-13.63c-4.59-2.61-6.36-5.91-5.4-10.76,0.65-3.27-.61-4.74-3.49-6.13-21.94-10.61-44.33-20-67.7-27.07-5.1-1.53-7-3.66-4.78-7.89,3.41-6.59,4.5-13,2.77-20.12a2,2,0,0,1,.08-0.85c1.87-9,4.93-17.56,10.32-25.08a20.39,20.39,0,0,1,5.33-4.77,3.75,3.75,0,0,1,3.5,0,4,4,0,0,1,.85,3.4c-1.43,5.85-3,11.65-9.46,14.25-1.13.46-2.08,1.35-4.32,2.85,4,3.49,7.53,6.55,11,9.69,1.83,1.65,3.52,1.69,5.15-.18,1.17-1.34,2.28-2.72,3.62-4.33L412,221.91c3.72-3.1,8.59-3.12,11.24-8.41,4.14-8.27,10.29-15.57,15.84-23.09a14.72,14.72,0,0,1,6-4.93c17.17-6.67,33.81-14.39,49.11-24.69a29.27,29.27,0,0,1,18.08-5.08c7,0.23,9.63-2.25,10.75-9.31a21.11,21.11,0,0,1,1.58-6.14c0.54-1.08,2.28-1.55,3.48-2.3,0.61,1.14,1.31,2.25,1.8,3.44s0.52,3.59,1.4,4A46.72,46.72,0,0,0,542.16,149c1.52,0.27,4-1,4.9-2.38,0.6-.88-0.7-3.16-1.31-4.75a14.7,14.7,0,0,0-1.79-2.57c13.56,0,26.52,0,39.49-.06,1.36,0,3.52-.46,3.92-1.34,1.71-3.78,2.91-7.8,4.49-12.3l-47-4.91-3.86-6c1.46-7.42,6.74-12.65,12.77-17.43,4.75-3.77,4.73-5.87.24-9.87-1-.92-2.2-1.68-3.62-2.75-1.49,1.9-2.8,3.55-4.07,5.23q-6.09,8-12.15,16a8.34,8.34,0,0,1-8.12,3.47c-4.89-.42-9.84-0.1-15.28-0.1l10.82-12.6-0.29-1.27c-6.61,1-14.1.33-19.71,3.26q-91.83,48.05-120.37,148c-2.08,7.31-2,7.34,4,12,3.94,3,4.31,4.66,1.47,9-3.21,4.87-6.77,9.52-9.94,14.42a15.45,15.45,0,0,0-2.5,6.23,122.29,122.29,0,0,0-.8,14.08q-0.49,86.48,54.58,153.2c7,8.5,3.83,7.46,13.79,2.47A6.84,6.84,0,0,0,442.89,457.1ZM805.24,351.24c-3,0-6.57-1-8.7.32-1.68,1-1.62,4.91-2.33,7.54-8.32,0-8.82-.12-10.11-6.67a7.32,7.32,0,0,0-5.55-6.12c-5.28,5.53-5.28,5.53-10.83,5.3l-1.13,4.28,5.95,1.86c0,1.64,0,3.19,0,4.74,0,12.82.07,25.64-.06,38.46,0,2.65.84,3.75,3.4,4.29,5.94,1.26,11.83,2.82,17.7,4.25-0.87,5.21.25,7,4.46,7.7,6,1,16.54-3.91,18.74-9.5,5.29-13.47,10.11-27.13,15.22-40.68,1.26-3.35.37-6-1.75-8.67-4.39,1.66-8.61,3.35-12.9,4.85-6.45,2.26-10.52-.32-11.28-7C805.89,354.66,805.56,353.13,805.24,351.24ZM513.26,519c51.24,23,103.77,26.42,157.57,11.3-5.87-.94-11.79-1.36-17.69-2-1.59-.17-3.67-0.49-4.58-1.55-3.42-4-8-3.66-12.39-4.28L634.08,527c-4.36-2.6-12.32,2.5-12.83-7.81-3.72.45-7.92-.24-10.46,1.49-6.49,4.44-13.38,5-20.71,4.59-2.75-.15-5.79.69-6.69-3.38-0.14-.63-2.1-1.08-3.27-1.22-6.93-.82-13.88-1.41-20.8-2.33-2.92-.39-5.22,0-7.25,2.3a4.34,4.34,0,0,1-3.24,1.27c-8.48-.92-9.39-1.89-11.2-9.9-0.26-1.17-1.61-2.79-2.62-2.92-1.3-.16-3.73.66-4,1.58-2.55,8.09-8.15,10-15.73,8.39A10.18,10.18,0,0,0,513.26,519ZM608.44,80.32l-1.11-1.53c-5.32-.42-10.67-0.64-16-1.32-5.59-.71-10.68.56-14.69,4.22a196.48,196.48,0,0,0-16.62,17c-1.45,1.68-1.57,5.11-1.23,7.59,0.63,4.63,2.87,5.63,6.7,3.06,12.87-8.61,25.6-17.41,38.39-26.13C605.4,82.24,606.93,81.3,608.44,80.32Zm113.8,280.13c-16.87,4.69-25.44,17.26-32.08,32,2.64,2.55,5.4.58,7.38-1.77C705.9,380.7,714,370.54,722.23,360.46Zm23.19,66c-1.93-6.66.55-11.51,4.62-15.88a5.06,5.06,0,0,0,1.06-3.08c0.12-4,0-7.95.08-11.91,0.08-2.73-1.19-3.51-4-3-1.16,5-2.29,10-3.58,15.09-0.41,1.59-.8,3.82-1.94,4.49-6.39,3.74-3.43,9.2-3.61,14.29h7.42ZM605.26,98.09L593.4,99.17l1.58,9.94h9.37Zm37.06-14.85L621,75.83l4,11.87ZM769.6,340.93c2.83,0,5.38.76,6.29-.13,3.67-3.63,6.84-7.77,10.18-11.7-4.28-3.22-7.05-2.4-9.39,1.6C774.83,333.85,772.53,336.74,769.6,340.93Z"/></g><g class="a"><path class="e" d="M834.28,254.28a208.32,208.32,0,0,1,5.83,53.81,30.58,30.58,0,0,1-2.87,11.56c-2.2-10.37-4.4-20.75-6.82-32.15-4.54,4.57-7.53,8.18-7.12,13.56a28.51,28.51,0,0,1-.12,3.41c-0.63,15.39-.61,15.42-12.38,25.44a6.32,6.32,0,0,1-4.11,1.22,46.64,46.64,0,0,1-9.71-1.33,16.18,16.18,0,0,1-5.82-3.42c-6.58-5.62-3.72-11.84-.77-17.93a3.24,3.24,0,0,1,2.18-1.51c2.53-.32,5.09-0.34,7.83-0.49,2.05,6-2.41,14.87,7.66,17,0.48-3.38.9-6.71,1.42-10a21.17,21.17,0,0,1,6.88-13.05c5-4.68,4.86-11.47,2.36-17.84a43.2,43.2,0,0,0-2.58-4.81c-10.25,4.12-14.64,6.57-24.56,19.24-6.56-4.38-7.3-7.52-4.9-15.87,1.33-4.66,1.72-9.6,2.63-14.92h-7.07V273l-5.62,1.57-2.81-5.67c-3.07,2.57-5.87,5.16-8.91,7.39a37,37,0,0,1-7.69,4.52,8.81,8.81,0,0,1-1.75.51c-2.39.39-4.52-.56-5.68-3.36-5.5-13.33-14.43-24.49-22.83-36-3.48-4.75-7.21-9.31-10.83-13.95l-0.95.68c3.33,5,6.73,10,9.94,15.1a131.58,131.58,0,0,1,7,12.1q5.54,11.3,10.49,22.89c1.66,3.86,4.18,4.91,8.08,4.13,1.62-.33,3.24-0.62,4.88-0.9,4-.68,8-1.3,11.92-2.15,3.73-.8,5.64,1,7.8,3.67,5.5,6.83,2.86,14.92,4,22.43,0.1,0.71-1,2-1.79,2.38-2.44,1.08-5,1.82-8.12,2.89,0.39-7.36.76-14.26,1.15-21.56-0.83.72-1.63,1.31-2.31,2Q754.1,306.59,740,321.51a37.26,37.26,0,0,0-10,19,14.78,14.78,0,0,1-7.6,10.31c-4.67,2.72-9.8,4.75-14.17,7.85-4,2.81-8,6.15-10.49,10.18a151.65,151.65,0,0,0-12,23.55c-3.69,9.25-10.31,14.08-19.62,15.59-4.89.8-9.92,0.76-14.89,1-2.43.12-3.73-.78-4.25-3.58-0.95-5.1-2-10.34-4.06-15-3.59-8-8.15-15.64-12.06-23.55a21,21,0,0,1-2.14-7.6c-0.61-8.37-.68-16.8-1.34-25.17-0.26-3.16-1.58-6.24-2.45-9.35-0.19-.68-0.54-1.33-0.71-2-2.49-10-5-19.94-7.36-30-0.45-1.94-.07-4.08-0.07-6.65-14.29,5.61-28.57,4.42-42.73,4.34a8.6,8.6,0,0,1-5.52-2.26c-9.52-9.62-18.79-19.49-28.23-29.2-2.39-2.45-3.8-5-3.77-8.61,0-5.1-2.3-11.08-.33-15.07,2.06-4.17,8-6.47,12.27-9.48,11.33-7.9,22.6-15.89,34.13-23.51,3.66-2.42,5.5-5,4.45-9.33-0.73-3-.14-4.89,3.44-5.26,0.86-.09,2.09-1.77,2.22-2.83,0.4-3.36-.84-7.71.86-9.9s6.14-2.09,10.37-3.28c-1-3-1.65-6.16-3.17-8.82-2.69-4.69-5.94-9-8.95-13.55-2.61-3.91-2-5.76,2.57-7.53,0.64-.25,1.26-0.55,2.12-0.92-1-4.54-1.86-9-3-13.38-0.68-2.59-.23-4.09,2.33-5.44,11.45-6,22.54-12.85,34.27-18.29,5-2.33,11.35-1.93,17.05-2.88,2.33-.39,4.6-1.06,7.72-1.8-3.58-4-9.27-6.06-6.08-13.19l11,7.61c4.28-2.23,9.48-5.17,14.9-7.64a9.23,9.23,0,0,1,6.33-.59C761.1,115.29,813.33,170.68,834.28,254.28ZM708.1,183.64l-7.89-8.55c0,9.37-7.9,4.88-12.44,7.83,0.46,1.84.95,3.8,1.62,6.47Zm-11.2,13.16,6.64-1.68c-7.09-1.34-13.21-2.4-19.29-3.69-2.68-.56-4.8-0.13-6.23,2.27-2.22,3.74-5.94,3.45-9.56,4.19-4.64.95-6.77-1.19-8.64-6.26l-12.56,16.52,21.52,4.32c2-6.47,8.12-2.81,11.5-5.53-0.22-1.05-.44-2.14-0.81-4h17C696.67,200.59,696.8,198.65,696.91,196.8Zm-51.16,4.9c1.47-4.4-.21-6.71-3.41-8.59s-5.63-4.74-8.86-5.8c-3.54-1.16-8.46-2.28-11.26-.71-5.93,3.33-10.86,8.41-17.23,13.61Z"/><path class="e" d="M830.24,358.34c2.13,2.68,3,5.33,1.75,8.67-5.11,13.55-9.92,27.21-15.22,40.69-2.2,5.58-12.71,10.49-18.74,9.49-4.21-.69-5.33-2.5-4.46-7.71-5.88-1.43-11.75-3-17.7-4.24-2.57-.55-3.43-1.65-3.4-4.29,0.13-12.82.06-25.64,0.06-38.46v-4.74l-6-1.86,1.14-4.28c5.55,0.23,5.55.23,10.83-5.29a7.3,7.3,0,0,1,5.55,6.12c1.29,6.55,1.79,6.69,10.11,6.67,0.72-2.63.65-6.51,2.33-7.54,2.13-1.31,5.69-.32,8.71-0.32,0.32,1.89.64,3.42,0.82,5,0.76,6.67,4.82,9.25,11.27,7C821.63,361.69,825.85,360,830.24,358.34Z"/><path class="e" d="M747.13,392.58c2.86-.52,4.13.27,4.05,3-0.12,4,0,7.95-.09,11.91a5,5,0,0,1-1.06,3.09c-4.06,4.37-6.55,9.22-4.62,15.87H738c0.18-5.09-2.77-10.55,3.61-14.29,1.15-.67,1.53-2.89,1.94-4.48C744.84,402.63,746,397.54,747.13,392.58Z"/><path class="e" d="M690.15,392.42c6.64-14.7,15.22-27.27,32.08-32-8.21,10.09-16.33,20.24-24.7,30.2C695.56,393,692.79,395,690.15,392.42Z"/><path class="e" d="M653.14,528.34c5.9,0.62,11.82,1,17.69,2C617,545.45,564.5,542,513.27,519a9.93,9.93,0,0,1,2,0c7.58,1.57,13.18-.31,15.73-8.39,0.29-.92,2.71-1.74,4-1.58,1,0.13,2.34,1.75,2.61,2.92,1.81,8,2.73,9,11.2,9.9a4.36,4.36,0,0,0,3.23-1.27c2-2.32,4.34-2.69,7.25-2.3,6.91,0.92,13.86,1.51,20.79,2.33,1.17,0.14,3.13.59,3.27,1.21,0.91,4.07,3.94,3.23,6.69,3.39,7.34,0.4,14.23-.15,20.71-4.59,2.54-1.74,6.74-1,10.46-1.5,0.5,10.31,8.47,5.21,12.83,7.81l2.1-4.46c4.39,0.62,9,.27,12.39,4.28C649.48,527.85,651.55,528.17,653.14,528.34Z"/><path class="e" d="M642.33,83.24L625,87.71c-1.27-3.75-2.49-7.34-4-11.88Z"/><path class="e" d="M607.33,78.79l1.11,1.54c-1.51,1-3,1.92-4.52,2.93-12.79,8.72-25.53,17.52-38.39,26.14-3.83,2.56-6.07,1.57-6.7-3.07-0.33-2.48-.21-5.9,1.23-7.59a196.47,196.47,0,0,1,16.62-17c4-3.66,9.1-4.93,14.69-4.22C596.66,78.14,602,78.37,607.33,78.79Z"/><path class="e" d="M605.27,98.09c-0.35,4.12-.62,7.47-0.92,11H595c-0.49-3.11-1-6.27-1.57-9.94Z"/><path class="e" d="M591.86,125.62c-1.58,4.51-2.78,8.53-4.49,12.31-0.4.87-2.57,1.33-3.93,1.34-13,.09-25.92.05-39.49,0.05a15,15,0,0,1,1.8,2.57c0.62,1.58,1.92,3.87,1.31,4.75-0.92,1.34-3.38,2.65-4.9,2.38a46.64,46.64,0,0,1-10.87-3.61c-0.89-.4-0.86-2.66-1.41-4a38.79,38.79,0,0,0-1.8-3.45c-1.2.75-2.94,1.22-3.48,2.3a21.07,21.07,0,0,0-1.57,6.14c-1.12,7.06-3.76,9.54-10.75,9.31a29.32,29.32,0,0,0-18.08,5.09c-15.29,10.29-31.94,18-49.11,24.68a14.76,14.76,0,0,0-6,4.93c-5.56,7.52-11.71,14.81-15.84,23.09-2.65,5.29-7.52,5.3-11.24,8.41l10.63,7.27c-1.33,1.61-2.45,3-3.62,4.34-1.63,1.86-3.32,1.82-5.16.17-3.49-3.14-7-6.21-11-9.69,2.24-1.51,3.19-2.39,4.31-2.85,6.43-2.6,8-8.41,9.46-14.25a4,4,0,0,0-.86-3.4,3.75,3.75,0,0,0-3.5,0,20.35,20.35,0,0,0-5.33,4.77c-5.39,7.53-8.45,16.07-10.31,25.08a2.08,2.08,0,0,0-.08.85c1.73,7.08.63,13.54-2.77,20.12-2.19,4.23-.33,6.35,4.77,7.89,23.37,7,45.77,16.46,67.7,27.06,2.87,1.39,4.14,2.86,3.49,6.13-1,4.85.81,8.15,5.4,10.76a177.21,177.21,0,0,1,20.65,13.63c7.38,5.68,6.66,11.92-1.3,17a7.69,7.69,0,0,1-1.86,1c-8.18,2.37-11.17,8.89-13.36,16.26-1.78,6-3.74,12-6,17.79-2.87,7.4-5.93,8.83-13.47,6.45-4.7-1.48-8.6-.87-12,2.84-10.33,11.32-17.28,24.67-23,38.72-0.62,1.52.08,4,.92,5.6,4.83,9.2,9.9,18.28,14.87,27.39,0.74,1.36,1.44,2.74,2.23,4.25a6.73,6.73,0,0,1-1,.93c-10,5-6.75,6-13.8-2.48q-55.16-66.61-54.58-153.2a120.74,120.74,0,0,1,.8-14.08,15.25,15.25,0,0,1,2.5-6.23c3.17-4.9,6.72-9.55,9.94-14.42,2.84-4.31,2.47-5.93-1.46-9-6-4.64-6.12-4.67-4-12q28.38-99.86,120.37-148c5.6-2.93,13.09-2.26,19.71-3.26l0.28,1.27-10.82,12.6c5.44,0,10.39-.32,15.28.1a8.34,8.34,0,0,0,8.13-3.46q6.06-8,12.14-16c1.28-1.68,2.59-3.33,4.08-5.23,1.42,1.07,2.59,1.83,3.62,2.75,4.49,4,4.52,6.1-.24,9.87-6,4.78-11.31,10-12.77,17.43l3.86,6Z"/></g><path class="e" d="M769.6,340.93c2.93-4.19,5.23-7.08,7.07-10.23,2.34-4,5.12-4.82,9.39-1.6-3.33,3.93-6.5,8.07-10.18,11.7C775,341.69,772.43,340.93,769.6,340.93Z"/><path d="M26.36,64.7V56.94H69.81V64.7H52.13v71.53H44V64.7H26.36Z"/><path d="M75.58,54.94h7.55V88.09a32.07,32.07,0,0,1,10.08-9,24.52,24.52,0,0,1,11.91-3,20.8,20.8,0,0,1,11.67,3.34,20,20,0,0,1,7.52,9Q126.74,94,126.74,106v30.19h-7.55v-28q0-10.13-.81-13.53A15.34,15.34,0,0,0,113.29,86,15.08,15.08,0,0,0,103.61,83a18.61,18.61,0,0,0-12.26,4.53,21.21,21.21,0,0,0-7.14,11.21q-1.08,4.31-1.08,16v21.51H75.58V54.94Z"/><path d="M187.87,116.77l6.36,3.34A34.68,34.68,0,0,1,187,130a28.71,28.71,0,0,1-9.23,5.74,32.18,32.18,0,0,1-11.6,2q-14.35,0-22.44-9.41a31.73,31.73,0,0,1-8.09-21.27,31.35,31.35,0,0,1,6.85-19.89q8.69-11.1,23.25-11.1,15,0,24,11.37,6.37,8,6.47,20.05H143.4q0.22,10.22,6.53,16.75a20.83,20.83,0,0,0,15.6,6.53,25.05,25.05,0,0,0,8.72-1.56,22.9,22.9,0,0,0,7.21-4.13A35.16,35.16,0,0,0,187.87,116.77Zm0-15.79a25,25,0,0,0-4.4-9.65,20.82,20.82,0,0,0-7.64-5.82,23.39,23.39,0,0,0-10-2.21A21.5,21.5,0,0,0,151,88.85q-4.54,4-6.85,12.13h43.72Z"/><path d="M264.41,129.28c-2.43,4.08-9.27,7.95-17.77,7.95-19.32,0-34.66-15-34.66-38.86,0-24.07,16.67-40.63,33.89-40.63,16,0,19.76,7.51,21.53,9.27l2.32-7.95h16.45V91.63H266.4c-0.33-8.94-6.07-14-12.59-14-8.94,0-15.12,9.71-15.12,20.75,0,11.26,5.52,20.31,15.12,20.31,6.29,0,8.94-2.54,10.6-5.41v-4.64h-6.73V96.82h36.65v11.81h-4.42v27.6H267.83Z"/><path d="M331,136.23H298.75V121.77h4.75V67.67h-4.64V53.43h25.61v68.34H331v14.46Z"/><path d="M333.85,108.41c0.11-18.44,15-28.7,30.25-28.7,17.44,0.22,30.36,10.71,30.69,29.14s-13.36,28.81-30.14,28.81C348.86,137.67,333.63,128,333.85,108.41Zm38.31,0.44c0-8.28-2.87-14.68-8.06-14.79-4.3,0-7.62,6.4-7.62,14.46,0,9.05,3.53,15,8.17,15S372.16,117.13,372.16,108.85Z"/><path d="M397.22,136.23V121.88h4.64v-54h-4.64V53.43h26.72v31.9c2.43-2.87,9.05-5.19,14.46-5.19,16.78,0,25.72,14.13,25.39,28.92-0.33,17-9.94,28.37-25.5,28.37-8.39,0-11.48-2.32-14.57-5l-1.66,3.75H397.22Zm34.33-40.52c-4.31,0-8.28,5.41-7.84,14.13,0,7.51,3.75,13.25,7.95,13.25,4.64,0,7.84-5.41,7.84-13.8C439.5,102.67,436.41,95.71,431.55,95.71Z"/><path d="M470.19,85.67c4.42-2.65,13.91-7.84,24.07-7.84,13.25,0,29.92,5,29.92,22.74V122.1h6.62v14.13H507.17l-2.65-5c-4.08,5.63-10.93,7.07-14.9,7.07-10.49,0-21.75-5.63-21.75-18.44,0-12.47,10.49-20.31,23-20.31,6.51,0,10.38,3.2,10.93,3.86V99.58c0-5-4.53-6.18-10.49-6.18-6.51,0-12.25,2.76-16.45,5.08Zm31.57,34.66v-4.2c-0.33-.55-1.88-3.2-6.51-3.2-4.42,0-6.4,2.43-6.4,5.85,0,3.09,2.54,5.19,5.85,5.19A8.67,8.67,0,0,0,501.76,120.33Z"/><path d="M567.45,136.23H535.21V121.77H540V67.67h-4.64V53.43h25.61v68.34h6.51v14.46Z"/><path d="M582.87,136.23l11.35-79.29h1.29L627.74,122l31.93-65.06h1.27l11.41,79.29h-7.77l-7.83-56.71-28,56.71h-2L598.31,79.09l-7.79,57.14h-7.66Z"/><path d="M738.5,77.58v58.65h-7.44V126.15a32.33,32.33,0,0,1-10.65,8.68,29.74,29.74,0,0,1-34.18-6.12,30.28,30.28,0,0,1-8.81-22,29.72,29.72,0,0,1,8.89-21.67,29,29,0,0,1,21.4-9,27.68,27.68,0,0,1,13.07,3.07,29.76,29.76,0,0,1,10.27,9.22V77.58h7.44Zm-30.16,5.77a22.76,22.76,0,0,0-20.11,11.79,23.77,23.77,0,0,0,0,23.69,23.13,23.13,0,0,0,8.53,8.8,22.29,22.29,0,0,0,11.5,3.15A23.56,23.56,0,0,0,720,127.66a21.84,21.84,0,0,0,8.53-8.45,24.13,24.13,0,0,0,3-12,23.34,23.34,0,0,0-6.7-17A22.21,22.21,0,0,0,708.34,83.35Z"/><path d="M755.43,55.8H763V77.58h12V84.1H763v52.13h-7.55V84.1h-10.3V77.58h10.3V55.8Z"/><path d="M779.64,54.94h7.55V88.09a32.07,32.07,0,0,1,10.08-9,24.52,24.52,0,0,1,11.91-3,20.8,20.8,0,0,1,11.67,3.34,20,20,0,0,1,7.52,9Q830.8,94,830.8,106v30.19h-7.55v-28q0-10.13-.81-13.53A15.34,15.34,0,0,0,817.35,86,15.08,15.08,0,0,0,807.67,83a18.61,18.61,0,0,0-12.26,4.53,21.21,21.21,0,0,0-7.14,11.21q-1.08,4.31-1.08,16v21.51h-7.55V54.94Z"/><path d="M854.43,56.94h15.79q13.58,0,18.33,1.19A20.34,20.34,0,0,1,899.66,65,19.79,19.79,0,0,1,904,78.07q0,7.92-4.2,13.07a20.69,20.69,0,0,1-11.59,6.93q-5.39,1.29-20.16,1.29h-5.66v36.87h-7.92V56.94Zm7.92,7.76V91.6l13.42,0.16q8.14,0,11.91-1.48a12.21,12.21,0,0,0,5.93-4.79,13.26,13.26,0,0,0,2.16-7.4,13.08,13.08,0,0,0-2.16-7.29,11.9,11.9,0,0,0-5.69-4.71q-3.53-1.4-11.56-1.4h-14Z"/><path d="M909.1,77.58h7.71v8.57a27,27,0,0,1,7.28-7.57,14.35,14.35,0,0,1,8-2.51,13.77,13.77,0,0,1,6.68,2l-3.94,6.36a10.5,10.5,0,0,0-4-1,10.91,10.91,0,0,0-7.28,3.1q-3.51,3.1-5.34,9.62-1.4,5-1.4,20.27v19.84H909.1V77.58Z"/><path d="M965.87,76.07a29.05,29.05,0,0,1,22.46,9.81,31.49,31.49,0,0,1-.46,42.67q-8.56,9.19-22,9.19t-22.06-9.19a31.42,31.42,0,0,1-.46-42.61A29,29,0,0,1,965.87,76.07Zm0,7.38a21.77,21.77,0,0,0-16.17,7,23.24,23.24,0,0,0-6.76,16.82A23.85,23.85,0,0,0,946,119.09a21.85,21.85,0,0,0,8.33,8.49,23.69,23.69,0,0,0,23,0,21.86,21.86,0,0,0,8.33-8.49,23.85,23.85,0,0,0,3.08-11.86A23.19,23.19,0,0,0,982,90.41,21.8,21.8,0,0,0,965.84,83.46Z"/><path d="M1002.85,77.58h7.65v67.49q0,7.38-2.67,10.75a8.82,8.82,0,0,1-7.3,3.37,24.5,24.5,0,0,1-8.62-1.83v-6.79a12.06,12.06,0,0,0,5.44,1.56,5,5,0,0,0,4.58-2.53q0.92-1.62.92-6.74V77.58Zm3.72-24.15a5.94,5.94,0,0,1,4.39,1.83,6.07,6.07,0,0,1,1.81,4.42,6,6,0,0,1-1.81,4.37,6.18,6.18,0,0,1-8.79,0,6,6,0,0,1-1.81-4.37,6.07,6.07,0,0,1,1.81-4.42A5.94,5.94,0,0,1,1006.57,53.43Z"/><path d="M1068.95,116.77l6.36,3.34a34.68,34.68,0,0,1-7.23,9.92,28.71,28.71,0,0,1-9.23,5.74,32.18,32.18,0,0,1-11.6,2q-14.35,0-22.44-9.41a31.73,31.73,0,0,1-8.09-21.27,31.35,31.35,0,0,1,6.85-19.89q8.69-11.1,23.25-11.1,15,0,24,11.37,6.37,8,6.47,20.05h-52.77q0.22,10.22,6.53,16.75a20.83,20.83,0,0,0,15.6,6.53,25.05,25.05,0,0,0,8.72-1.56,22.9,22.9,0,0,0,7.21-4.13A35.16,35.16,0,0,0,1068.95,116.77Zm0-15.79a25,25,0,0,0-4.4-9.65,20.82,20.82,0,0,0-7.64-5.82,23.39,23.39,0,0,0-10-2.21,21.5,21.5,0,0,0-14.84,5.55q-4.54,4-6.85,12.13h43.72Z"/><path d="M1141.62,89.76l-6,3.72q-7.75-10.29-21.16-10.3-10.72,0-17.79,6.89a22.5,22.5,0,0,0-7.08,16.75,23.78,23.78,0,0,0,3.26,12.06,22.84,22.84,0,0,0,8.94,8.78,27,27,0,0,0,33.84-7.17l6,3.93a28.26,28.26,0,0,1-11.29,9.82,36.08,36.08,0,0,1-16.14,3.49q-13.91,0-23.07-8.84a28.76,28.76,0,0,1-9.16-21.51,30.73,30.73,0,0,1,4.29-15.82A30.2,30.2,0,0,1,1098,80.17a34.37,34.37,0,0,1,16.76-4.1A35.78,35.78,0,0,1,1126,77.85a31.25,31.25,0,0,1,9.19,4.64A25.23,25.23,0,0,1,1141.62,89.76Z"/><path d="M1156.07,55.8h7.55V77.58h12V84.1h-12v52.13h-7.55V84.1h-10.3V77.58h10.3V55.8Z"/><path d="M117.72,485H133l30.5,79.29H147.84L141.64,548H109.28l-6.45,16.33H87.14Zm7.75,21-10.64,27.22H136Z"/><path d="M169.06,505.64h14.72v6.74a25.12,25.12,0,0,1,8.39-6.2,24.51,24.51,0,0,1,10.06-2,18.7,18.7,0,0,1,9.93,2.7,19.49,19.49,0,0,1,7.12,7.87,23.77,23.77,0,0,1,8.6-7.87,23.47,23.47,0,0,1,11.14-2.7A20.63,20.63,0,0,1,250,507a16.82,16.82,0,0,1,6.82,7.6q2.08,4.69,2.08,15.25v34.39H244.09V534.53q0-10-2.48-13.5a8.49,8.49,0,0,0-7.44-3.53,11.29,11.29,0,0,0-6.76,2.16,12.74,12.74,0,0,0-4.45,6q-1.46,3.8-1.46,12.21v26.47H206.68V535.88q0-7.87-1.16-11.4a10.32,10.32,0,0,0-3.48-5.26,9.16,9.16,0,0,0-5.62-1.73,11.07,11.07,0,0,0-6.67,2.18,13,13,0,0,0-4.48,6.12q-1.49,3.94-1.49,12.4v26.09H169.06V505.64Z"/><path d="M280.92,483v29.11a27.68,27.68,0,0,1,8.63-6,24.84,24.84,0,0,1,9.92-2A25.61,25.61,0,0,1,319,512.81q8,8.68,8,22.26,0,13.1-8.3,21.91T299,565.8A24.44,24.44,0,0,1,289.6,564a28.75,28.75,0,0,1-8.68-5.9v6.2H266.31V483h14.61Zm15.47,34.71a15.36,15.36,0,0,0-11.54,4.74q-4.58,4.74-4.58,12.4,0,7.82,4.58,12.64a15.24,15.24,0,0,0,11.54,4.82,15,15,0,0,0,11.35-4.91,17.54,17.54,0,0,0,4.61-12.51,17.36,17.36,0,0,0-4.53-12.37A15,15,0,0,0,296.39,517.71Z"/><path d="M378.06,505.64h14.72v58.65H378.06v-6.2a28.85,28.85,0,0,1-8.64,5.9,24.18,24.18,0,0,1-9.4,1.81q-11.36,0-19.65-8.81t-8.29-21.91q0-13.58,8-22.26a25.56,25.56,0,0,1,19.49-8.68,24.78,24.78,0,0,1,9.91,2,27.05,27.05,0,0,1,8.56,6v-6.47Zm-15.47,12.07a14.87,14.87,0,0,0-11.34,4.82,17.39,17.39,0,0,0-4.51,12.37,17.57,17.57,0,0,0,4.59,12.51,14.88,14.88,0,0,0,11.31,4.91,15.16,15.16,0,0,0,11.5-4.82q4.57-4.82,4.57-12.64,0-7.65-4.57-12.4A15.35,15.35,0,0,0,362.59,517.71Z"/><path d="M439.14,513.83L430,522.94q-5.55-5.5-10.08-5.5a6.34,6.34,0,0,0-3.88,1.05,3.16,3.16,0,0,0-1.4,2.61,3.21,3.21,0,0,0,.89,2.18,16.57,16.57,0,0,0,4.39,2.72l5.39,2.7q8.52,4.2,11.7,8.57a17.85,17.85,0,0,1-2.56,23.29q-5.74,5.23-15.39,5.23a24.46,24.46,0,0,1-20.48-10l9.06-9.87a20.9,20.9,0,0,0,6.06,4.88,13.43,13.43,0,0,0,6.17,1.86,7.36,7.36,0,0,0,4.69-1.4,4.06,4.06,0,0,0,1.78-3.23q0-3.4-6.42-6.63l-5-2.48q-14.23-7.17-14.23-18a15.57,15.57,0,0,1,5.36-11.89q5.36-4.93,13.72-4.93A23.8,23.8,0,0,1,439.14,513.83Z"/><path d="M483.29,513.83l-9.11,9.11q-5.55-5.5-10.08-5.5a6.34,6.34,0,0,0-3.88,1.05,3.16,3.16,0,0,0-1.4,2.61,3.21,3.21,0,0,0,.89,2.18A16.57,16.57,0,0,0,464.1,526l5.39,2.7q8.52,4.2,11.7,8.57a17.85,17.85,0,0,1-2.56,23.29q-5.74,5.23-15.39,5.23a24.46,24.46,0,0,1-20.48-10l9.06-9.87a20.9,20.9,0,0,0,6.06,4.88,13.43,13.43,0,0,0,6.17,1.86,7.36,7.36,0,0,0,4.69-1.4,4.06,4.06,0,0,0,1.78-3.23q0-3.4-6.42-6.63l-5-2.48q-14.23-7.17-14.23-18a15.57,15.57,0,0,1,5.36-11.89q5.36-4.93,13.72-4.93A23.8,23.8,0,0,1,483.29,513.83Z"/><path d="M534.83,505.64h14.72v58.65H534.83v-6.2a28.85,28.85,0,0,1-8.64,5.9,24.18,24.18,0,0,1-9.4,1.81q-11.36,0-19.65-8.81t-8.29-21.91q0-13.58,8-22.26a25.56,25.56,0,0,1,19.49-8.68,24.78,24.78,0,0,1,9.91,2,27.05,27.05,0,0,1,8.56,6v-6.47Zm-15.47,12.07A14.87,14.87,0,0,0,508,522.54a17.39,17.39,0,0,0-4.51,12.37,17.57,17.57,0,0,0,4.59,12.51,14.88,14.88,0,0,0,11.31,4.91,15.16,15.16,0,0,0,11.5-4.82q4.57-4.82,4.57-12.64,0-7.65-4.57-12.4A15.35,15.35,0,0,0,519.36,517.71Z"/><path d="M601.08,483H615.8v81.29H601.08v-6.2a28.85,28.85,0,0,1-8.64,5.9,24.18,24.18,0,0,1-9.4,1.81q-11.36,0-19.65-8.81t-8.29-21.91q0-13.58,8-22.26a25.56,25.56,0,0,1,19.49-8.68,24.78,24.78,0,0,1,9.91,2,27.05,27.05,0,0,1,8.56,6V483Zm-15.47,34.71a14.87,14.87,0,0,0-11.34,4.82,17.39,17.39,0,0,0-4.51,12.37,17.57,17.57,0,0,0,4.59,12.51,14.88,14.88,0,0,0,11.31,4.91,15.16,15.16,0,0,0,11.5-4.82q4.57-4.82,4.57-12.64,0-7.65-4.57-12.4A15.35,15.35,0,0,0,585.61,517.71Z"/><path d="M653.81,504.13a31.09,31.09,0,0,1,15.61,4.15,30.44,30.44,0,0,1,15.5,26.63,30.8,30.8,0,0,1-4.12,15.52,29.74,29.74,0,0,1-11.24,11.29,31,31,0,0,1-15.69,4.07,29.26,29.26,0,0,1-21.54-9,31.09,31.09,0,0,1,1.16-44.71A29.45,29.45,0,0,1,653.81,504.13ZM654,518a15.15,15.15,0,0,0-11.42,4.77A16.94,16.94,0,0,0,638.07,535q0,7.66,4.51,12.4A15.08,15.08,0,0,0,654,552.11a15.25,15.25,0,0,0,11.5-4.8A17.12,17.12,0,0,0,670.09,535q0-7.55-4.51-12.26A15.25,15.25,0,0,0,654,518Z"/><path d="M691.27,505.64h12.61V513a15.76,15.76,0,0,1,5.44-6.63,13.14,13.14,0,0,1,7.44-2.26,13.77,13.77,0,0,1,6,1.51l-4.58,12.67a10.12,10.12,0,0,0-4.26-1.29q-3.4,0-5.74,4.2t-2.35,16.5l0.05,2.86v23.72H691.27V505.64Z"/><path d="M749.23,485h16q13,0,18.73,2.4a19.06,19.06,0,0,1,9.06,7.76A24,24,0,0,1,796.35,508q0,8.3-4.34,13.8a22.51,22.51,0,0,1-11.78,7.66q-4.37,1.24-15.9,1.24v33.58H749.23V485Zm15.09,31h4.8q5.66,0,7.87-.81a7,7,0,0,0,3.48-2.68,7.85,7.85,0,0,0,1.27-4.52,7.22,7.22,0,0,0-3.56-6.71q-2.59-1.57-9.59-1.57h-4.26V516Z"/><path d="M799.43,505.64H812V513a15.76,15.76,0,0,1,5.44-6.63,13.14,13.14,0,0,1,7.44-2.26,13.77,13.77,0,0,1,6,1.51l-4.58,12.67a10.12,10.12,0,0,0-4.26-1.29q-3.4,0-5.74,4.2T814,537.71l0.05,2.86v23.72H799.43V505.64Z"/><path d="M859.11,504.13a31.09,31.09,0,0,1,15.61,4.15,30.44,30.44,0,0,1,15.5,26.63,30.8,30.8,0,0,1-4.12,15.52,29.74,29.74,0,0,1-11.24,11.29,31,31,0,0,1-15.69,4.07,29.26,29.26,0,0,1-21.54-9,31.09,31.09,0,0,1,1.16-44.71A29.45,29.45,0,0,1,859.11,504.13ZM859.35,518a15.15,15.15,0,0,0-11.42,4.77A16.94,16.94,0,0,0,843.37,535q0,7.66,4.51,12.4a15.08,15.08,0,0,0,11.42,4.74,15.25,15.25,0,0,0,11.5-4.8A17.12,17.12,0,0,0,875.39,535q0-7.55-4.51-12.26A15.25,15.25,0,0,0,859.35,518Z"/><path d="M941.15,505.64h14.66v50.24q0,14.88-6,21.89-8,9.49-24.2,9.49a42.41,42.41,0,0,1-14.5-2.16,25.28,25.28,0,0,1-15.9-16.5h16.23a13.41,13.41,0,0,0,5.55,3.75,23,23,0,0,0,8,1.27,21.19,21.19,0,0,0,9.54-1.83,11.07,11.07,0,0,0,5.09-4.74q1.48-2.91,1.48-10a24.36,24.36,0,0,1-8.14,5.58,25.88,25.88,0,0,1-9.65,1.7,26.52,26.52,0,0,1-19.95-8.52q-8.14-8.52-8.14-21.56,0-14,8.63-22.42a25.73,25.73,0,0,1,18.65-7.65,24.83,24.83,0,0,1,9.57,1.86,30.33,30.33,0,0,1,9,6.12v-6.47ZM925.9,517.88a15.33,15.33,0,0,0-11.48,4.66,16.15,16.15,0,0,0-4.53,11.72,16.38,16.38,0,0,0,4.64,12A15.7,15.7,0,0,0,926.17,551a15.07,15.07,0,0,0,11.29-4.58q4.45-4.58,4.45-12a16.33,16.33,0,0,0-4.47-11.91A15.42,15.42,0,0,0,925.9,517.88Z"/><path d="M962.83,505.64h12.61V513a15.76,15.76,0,0,1,5.44-6.63,13.14,13.14,0,0,1,7.44-2.26,13.77,13.77,0,0,1,6,1.51l-4.58,12.67a10.12,10.12,0,0,0-4.26-1.29q-3.4,0-5.74,4.2t-2.35,16.5l0.05,2.86v23.72H962.83V505.64Z"/><path d="M1038.25,505.64H1053v58.65h-14.72v-6.2a28.85,28.85,0,0,1-8.64,5.9,24.18,24.18,0,0,1-9.4,1.81q-11.36,0-19.65-8.81t-8.29-21.91q0-13.58,8-22.26a25.56,25.56,0,0,1,19.49-8.68,24.78,24.78,0,0,1,9.91,2,27.05,27.05,0,0,1,8.56,6v-6.47Zm-15.47,12.07a14.87,14.87,0,0,0-11.34,4.82,17.39,17.39,0,0,0-4.51,12.37,17.57,17.57,0,0,0,4.59,12.51,14.88,14.88,0,0,0,11.31,4.91,15.16,15.16,0,0,0,11.5-4.82q4.57-4.82,4.57-12.64,0-7.65-4.57-12.4A15.35,15.35,0,0,0,1022.78,517.71Z"/><path d="M1061.11,505.64h14.72v6.74a25.12,25.12,0,0,1,8.39-6.2,24.51,24.51,0,0,1,10.06-2,18.7,18.7,0,0,1,9.93,2.7,19.49,19.49,0,0,1,7.12,7.87,23.77,23.77,0,0,1,8.6-7.87,23.47,23.47,0,0,1,11.14-2.7,20.63,20.63,0,0,1,11,2.91,16.82,16.82,0,0,1,6.82,7.6q2.08,4.69,2.08,15.25v34.39h-14.82V534.53q0-10-2.48-13.5a8.49,8.49,0,0,0-7.44-3.53,11.29,11.29,0,0,0-6.76,2.16,12.74,12.74,0,0,0-4.45,6q-1.46,3.8-1.46,12.21v26.47h-14.82V535.88q0-7.87-1.16-11.4a10.32,10.32,0,0,0-3.48-5.26,9.16,9.16,0,0,0-5.62-1.73,11.07,11.07,0,0,0-6.67,2.18,13,13,0,0,0-4.48,6.12q-1.49,3.94-1.49,12.4v26.09h-14.72V505.64Z"/></svg>