<svg xmlns="http://www.w3.org/2000/svg" viewBox="0 0 400 400"><defs><style>.a{fill:#ccc;}.b{fill:#b3b3b3;}.c{fill:#333;}</style></defs><title>involved_inons</title><path class="a" d="M113,326.08q-0.75-.23-38.41-41a3.44,3.44,0,0,1-.68-3.1,33.61,33.61,0,0,1,3.8-7.51q7.78-12.47,30.4-39.39A117,117,0,0,1,102.8,212C80,202.51,64.9,195.27,57.14,190.2q-6.74-4.4-6.08-6.64l15.32-53.4c0.46-1.6,3.73-2.33,9.83-2.19,9.41,0.21,25.57,2.51,48.69,6.95a108.4,108.4,0,0,1,16.48-16.59q-4.31-31.69-4.66-46.82-0.19-8.18.77-11.54a3.4,3.4,0,0,1,2.26-2.22q1.7-.31,15.23-3.71t25.71-6.36q12.18-3,12.93-2.74c1.4,0.42,3.83,4.39,7.28,11.86,1.42,3.08,3,6.75,4.77,11q9.06,22,12,31.57,7.67,1.48,11.4,2.6t11,4.12a411.15,411.15,0,0,1,37.12-26.81q4.89-3.07,9.42-5.6l2.46-.09q1.49,0.45,38.56,40.6a5.38,5.38,0,0,1,.44.72l66.06,70.29C386.53,84.65,302.53,5.38,200,5.38,92.51,5.38,5.38,92.51,5.38,200c0,99.56,74.76,181.65,171.2,193.22l-63.05-67.09A1.72,1.72,0,0,1,113,326.08Z"/><path class="b" d="M394.07,185.25L328,115a3.21,3.21,0,0,1,.31,2.4c-0.62,2.14-2.34,5.37-5.11,9.63q-8.19,12.55-28.94,37.31a113.94,113.94,0,0,1,5.59,23.23q30.31,12.61,43.14,20.1c6.63,3.87,9.71,6.71,9.2,8.48l-15.32,53.4c-0.52,1.82-4.81,2.49-12.79,2q-14.76-.88-46.33-6.95A115.6,115.6,0,0,1,260.66,281q4.26,31.33,4.65,46.47,0.22,8.46-.76,11.89a3.41,3.41,0,0,1-2.26,2.22q-53.23,13.41-54,13.19-2.08-.63-7.08-11.58-2.18-4.78-4.92-11.51-9-22.19-11.93-31.76-7.68-1.48-11.4-2.6t-11-4.12q-7.52,6.44-26.81,20.11-6.84,4.84-11.61,7.84-7.7,4.85-10.1,5l63.05,67.09A196.55,196.55,0,0,0,200,394.62c107.49,0,194.62-87.14,194.62-194.62Q394.62,192.56,394.07,185.25Z"/><path class="a" d="M224.84,244.33q18.08-10.1,23.88-30.32,5.69-19.83-4.31-38.59T215,150.84q-19.38-5.83-37.7,4.41t-24,30.07A50.06,50.06,0,0,0,157.4,224q9.87,18.5,29.62,24.44A46.92,46.92,0,0,0,224.84,244.33ZM195,245.58V233.91a1.42,1.42,0,0,0-1.18-1.39,46.41,46.41,0,0,1-19.93-8.71,1.41,1.41,0,0,1-.38-1.75l5-9.94a1.41,1.41,0,0,1,2.13-.48c6.55,5.15,15.6,8.52,21.86,8.52,5.13,0,8.34-1.93,8.34-5.59,0-11.37-33.92-4.58-33.92-27.32,0-9.47,6.5-16.12,16.93-18.47A1.43,1.43,0,0,0,195,167.4v-11a1.42,1.42,0,0,1,1.42-1.42h9.16a1.42,1.42,0,0,1,1.42,1.42v10.42a1.42,1.42,0,0,0,1.25,1.4,47.79,47.79,0,0,1,18.44,6.15,1.41,1.41,0,0,1,.53,1.82l-4.89,10.22a1.42,1.42,0,0,1-1.95.65c-6.55-3.55-14.34-6-19.24-6-4.22,0-7.06,1.56-7.06,4.68,0,11.09,33.87,4.77,33.87,28,0,11-8.34,17.51-19.72,19.18a1.43,1.43,0,0,0-1.23,1.4v11.25a1.42,1.42,0,0,1-1.42,1.42h-9.16A1.42,1.42,0,0,1,195,245.58Z"/><path class="c" d="M207,245.58V234.33a1.43,1.43,0,0,1,1.23-1.4c11.37-1.68,19.72-8.21,19.72-19.18,0-23.19-33.87-16.87-33.87-28,0-3.12,2.84-4.68,7.06-4.68,4.9,0,12.7,2.42,19.24,6a1.42,1.42,0,0,0,1.95-.65l4.89-10.22a1.41,1.41,0,0,0-.53-1.82,47.79,47.79,0,0,0-18.44-6.15,1.42,1.42,0,0,1-1.25-1.4V156.42a1.42,1.42,0,0,0-1.42-1.42h-9.16a1.42,1.42,0,0,0-1.42,1.42v11a1.43,1.43,0,0,1-1.13,1.39c-10.43,2.34-16.93,9-16.93,18.47,0,22.73,33.92,15.95,33.92,27.32,0,3.67-3.21,5.59-8.34,5.59-6.25,0-15.31-3.36-21.86-8.52a1.41,1.41,0,0,0-2.13.48l-5,9.94a1.41,1.41,0,0,0,.38,1.75,46.41,46.41,0,0,0,19.93,8.71,1.42,1.42,0,0,1,1.18,1.39v11.67a1.42,1.42,0,0,0,1.42,1.42h9.16A1.42,1.42,0,0,0,207,245.58Z"/><path class="c" d="M289,73.64l-2.46.09q-4.52,2.53-9.42,5.6A411.15,411.15,0,0,0,240,106.14q-7.24-3-11-4.12t-11.4-2.6q-2.92-9.58-12-31.57c-1.77-4.28-3.35-7.95-4.77-11-3.44-7.48-5.87-11.44-7.28-11.86q-0.75-.23-12.93,2.74T155,54q-13.52,3.39-15.23,3.71A3.4,3.4,0,0,0,137.49,60q-1,3.35-.77,11.54,0.36,15.14,4.66,46.82a108.4,108.4,0,0,0-16.48,16.59c-23.12-4.44-39.28-6.73-48.69-6.95-6.1-.14-9.38.59-9.83,2.19l-15.32,53.4q-0.64,2.24,6.08,6.64C64.9,195.27,80,202.51,102.8,212a117,117,0,0,0,5.29,23.14q-22.62,27-30.4,39.39a33.61,33.61,0,0,0-3.8,7.51,3.44,3.44,0,0,0,.68,3.1q37.68,40.75,38.41,41a1.72,1.72,0,0,0,.56,0q2.4-.12,10.1-5,4.79-3,11.61-7.84,19.3-13.68,26.81-20.11,7.23,3,11,4.12t11.4,2.6q2.92,9.58,11.93,31.76,2.74,6.74,4.92,11.51,5,10.94,7.08,11.58,0.74,0.22,54-13.19a3.41,3.41,0,0,0,2.26-2.22q1-3.42.76-11.89-0.4-15.15-4.65-46.47a115.6,115.6,0,0,0,17.08-16.41q31.55,6.06,46.33,6.95c8,0.48,12.27-.19,12.79-2l15.32-53.4c0.51-1.78-2.57-4.61-9.2-8.48q-12.79-7.48-43.14-20.1a113.94,113.94,0,0,0-5.59-23.23q20.79-24.78,28.94-37.31c2.78-4.26,4.5-7.49,5.11-9.63A3.21,3.21,0,0,0,328,115a5.38,5.38,0,0,0-.44-0.72Q290.52,74.09,289,73.64ZM187,248.49Q167.26,242.55,157.4,224a50.06,50.06,0,0,1-4.07-38.72q5.69-19.83,24-30.07t37.7-4.41q19.37,5.82,29.38,24.58T248.72,214q-5.8,20.22-23.88,30.32A46.92,46.92,0,0,1,187,248.49Z"/></svg>