<svg xmlns="http://www.w3.org/2000/svg" viewBox="0 0 400 400"><defs><style>.a{fill:#ccc;}.b{fill:#b3b3b3;}.c{fill:#333;}</style></defs><title>involved_inons</title><path class="a" d="M65.65,241.32a56.94,56.94,0,0,1,83.24-77.7l90-49.15a39,39,0,0,1,68-29.92L393,175C380.77,79.33,299,5.38,200,5.38,92.51,5.38,5.38,92.51,5.38,200S92.51,394.62,200,394.62q4.79,0,9.5-.23L66.82,242.57C66.42,242.17,66,241.75,65.65,241.32Z"/><path class="b" d="M393,175L306.85,84.56a39,39,0,0,1-53.63,56.26l-89.94,49.13a56.68,56.68,0,0,1,.34,24.74l88.75,45.22a39,39,0,1,1-13.73,29.71c0-1,.05-2,0.13-3L150,241.42a56.93,56.93,0,0,1-83.19,1.15L209.5,394.39c103.08-5,185.12-90.09,185.12-194.39A196.17,196.17,0,0,0,393,175Z"/><path class="c" d="M277.63,71.39a38.86,38.86,0,0,0-38.77,43.09l-90,49.15a56.94,56.94,0,0,0-83.24,77.7c0.38,0.43.77,0.85,1.17,1.25A56.93,56.93,0,0,0,150,241.42l88.75,45.22c-0.07,1-.12,2-0.12,3a39,39,0,1,0,13.73-29.71l-88.75-45.22a56.68,56.68,0,0,0-.34-24.74l89.94-49.13A39,39,0,1,0,277.63,71.39Z"/></svg>